
<svg xmlns="http://www.w3.org/2000/svg" version="1.1" xmlns:xlink="http://www.w3.org/1999/xlink" preserveAspectRatio="none" x="0px" y="0px" width="1280px" height="720px" viewBox="0 0 1280 720">
<defs/>

<g id="blink1">
<g>
<g>
<g>
<path fill="#FFFFFF" stroke="none" d="
M 610.5 476.75
Q 636.3513671875 460.186328125 644 435 578.092578125 459.3265625 518.5 438 528.0626953125 464.378515625 553.5 476.75 582.925390625 489.7060546875 610.5 476.75
M 437.45 259.45
L 364.55 259.2 364.55 438.95 435.45 438.95
Q 466.330859375 435.46171875 488.45 414.45 518.6814453125 383.6921875 517.4 348.15 516.1541015625 312.6494140625 494.35 289 472.5560546875 265.3634765625 437.45 259.45
M 473.8 328.35
Q 482.77734375 348.7171875 472.95 371.45 462.765234375 396.015234375 431.05 400.05
L 402.95 400.05 402.95 297.45 434.6 297.45
Q 463.398828125 304.9693359375 473.8 328.35
M 790.7 289
Q 768.9 265.35 733.8 259.45
L 660.9 259.2 660.9 438.95 731.8 438.95
Q 762.7 435.45 784.8 414.45 815.05 383.7 813.8 348.2 812.5 312.65 790.7 289
M 730.95 297.45
Q 759.75 304.95 770.15 328.35 779.15 348.7 769.3 371.45 759.1 396 727.4 400.05
L 699.3 400.05 699.3 297.45 730.95 297.45 Z"/>
</g>
</g>
</g>
</g>

<g id="blink2">
<g>
<g>
<g>
<path fill="#FFFFFF" stroke="none" d="
M 609.45 481.2
Q 635.3 464.65 640.45 440.45 576.0701171875 454.0015625 521.45 443.45 527 468.85 552.45 481.2 581.9 494.15 609.45 481.2
M 437.45 259.45
L 364.55 259.2 364.55 438.95 435.45 438.95
Q 466.330859375 435.46171875 488.45 414.45 518.6814453125 383.6921875 517.4 348.15 516.1541015625 312.6494140625 494.35 289 472.5560546875 265.3634765625 437.45 259.45
M 434.6 297.45
Q 463.398828125 304.9693359375 473.8 328.35 482.77734375 348.7171875 472.95 371.45 462.765234375 396.015234375 431.05 400.05
L 402.95 400.05 402.95 297.45 434.6 297.45
M 790.7 289
Q 768.9 265.35 733.8 259.45
L 660.9 259.2 660.9 438.95 731.8 438.95
Q 762.7 435.45 784.8 414.45 815.05 383.7 813.8 348.2 812.5 312.65 790.7 289
M 730.95 297.45
Q 759.75 304.95 770.15 328.35 779.15 348.7 769.3 371.45 759.1 396 727.4 400.05
L 699.3 400.05 699.3 297.45 730.95 297.45 Z"/>
</g>
</g>
</g>
</g>

<g id="blink3">
<g>
<g>
<g>
<path fill="#FFFFFF" stroke="none" d="
M 793.8 298.9
Q 773.7 281.35 729.1 279.2
L 660.2 279.2
Q 634.6 344.05 660.45 416.45
L 728.85 418.95
Q 766.35 418.6 782.1 405.7 814.85 384.55 814.4 350.5 813.9 316.45 793.8 298.9
M 726.95 384.05
L 701.35 383.3 700.1 313.2 729.5 311.7
Q 762.25 315.25 771.8 333 781.3 350.7 768.4 366.6 755.45 382.45 726.95 384.05
M 431.95 279.2
L 363.05 279.2
Q 337.43125 344.043359375 363.3 416.45
L 431.7 418.95
Q 469.1904296875 418.58984375 484.95 405.7 517.7111328125 384.5546875 517.2 350.5 516.7404296875 316.4439453125 496.65 298.9 476.5560546875 281.3634765625 431.95 279.2
M 404.2 383.3
L 402.95 313.2 432.35 311.7
Q 465.1177734375 315.2607421875 474.65 332.95 484.1732421875 350.6818359375 471.2 366.55 458.279296875 382.47109375 429.8 384.05
L 404.2 383.3
M 609.45 477.2
Q 636.0451171875 463.6306640625 644.45 435.45 580.7306640625 459.5166015625 518.95 439.45 527 464.85 552.45 477.2 581.9 490.15 609.45 477.2 Z"/>
</g>
</g>
</g>
</g>

<g id="blink4">
<g>
<g>
<g>
<path fill="#FFFFFF" stroke="none" d="
M 728.95 291.2
L 661.3 291.45
Q 620.75 342.9 662.3 403.2
L 729.2 406.2
Q 756.75 407.3 778.7 398.2 813.85 382.85 813.65 350.65 813.4 318.4 793.1 305 772.75 291.65 728.95 291.2
M 700.7 324.45
Q 713.55 321.5 728.1 321.95 760.45 324.7 770.9 337.2 781.35 349.7 769.3 360.35 757.25 371 726.55 373.3 713.2 374.45 701.7 371.05
L 700.7 324.45
M 431.95 291.2
L 364.3 291.45
Q 323.7666015625 342.91328125 365.3 403.2
L 432.2 406.2
Q 459.74375 407.321875 481.7 398.2 516.85078125 382.8599609375 516.6 350.6 516.4068359375 318.38046875 496.05 305 475.73671875 291.6287109375 431.95 291.2
M 404.7 371.05
L 403.7 324.45
Q 416.5375 321.4751953125 431.1 321.95 463.4669921875 324.7177734375 473.9 337.2 484.3375 349.68828125 472.3 360.35 460.2576171875 371.0033203125 429.55 373.3 416.21015625 374.4623046875 404.7 371.05
M 609.45 477.2
Q 636.0451171875 463.6306640625 644.45 435.45 580.7306640625 459.5166015625 518.95 439.45 527 464.85 552.45 477.2 581.9 490.15 609.45 477.2 Z"/>
</g>
</g>
</g>
</g>

<g id="blink5">
<g>
<g>
<g>
<path fill="#FFFFFF" stroke="none" d="
M 727.7 312.95
L 670.8 314.2
Q 642.55 325.9 642.2 343.7 641.8 361.5 673.3 376.2
L 728.7 379.45
Q 756.5 379.5 776.45 374.95 812 365.45 812.75 346.45 813.45 327.4 794.35 320.05 775.25 312.7 727.7 312.95
M 701.45 353.8
L 700.7 339.2
Q 713.75 337.5 731.85 338.2 763.35 339.4 771.2 343.9 779 348.35 768.75 352.25 758.45 356.15 731.8 356.3 713.9 356.4 701.45 353.8
M 374.05 314.2
Q 345.7861328125 325.8810546875 345.4 343.7 345.0638671875 361.524609375 376.55 376.2
L 431.95 379.45
Q 459.74375 379.478125 479.7 374.95 515.25 365.432421875 515.95 346.4 516.7009765625 327.4109375 497.6 320.05 478.4986328125 312.691796875 430.95 312.95
L 374.05 314.2
M 404.7 353.8
L 403.95 339.2
Q 417.0091796875 337.5150390625 435.1 338.2 466.6001953125 339.41171875 474.4 343.85 482.24921875 348.3369140625 471.95 352.25 461.7015625 356.166796875 435.05 356.3 417.136328125 356.401953125 404.7 353.8
M 609.45 477.2
Q 636.0451171875 463.6306640625 644.45 435.45 580.7306640625 459.5166015625 518.95 439.45 527 464.85 552.45 477.2 581.9 490.15 609.45 477.2 Z"/>
</g>
</g>
</g>
</g>

<g id="blink6">
<g>
<g>
<g>
<path fill="#FFFFFF" stroke="none" d="
M 728.55 322.2
L 673.4 324.95
Q 644.55 328.3 643.05 342.5 641.5 356.65 677.15 364.45
L 728.8 368.45
Q 756.6 368.75 776.55 364.95 811.2 359.45 812.3 344.55 813.35 329.65 794.15 325.55 774.95 321.45 728.55 322.2
M 701.3 346.3
L 701.3 345.2
Q 716.2 346.45 741.5 346.15 766.75 345.8 771.2 345.9 775.65 346 767.75 347.1 759.85 348.2 737.45 348.55 714.95 348.9 701.3 346.3
M 346.15 342.45
Q 344.6328125 356.6541015625 380.3 364.45
L 431.95 368.45
Q 459.74375 368.7412109375 479.7 364.95 514.336328125 359.453515625 515.4 344.55 516.502734375 329.6474609375 497.3 325.55 478.11171875 321.44609375 431.7 322.2
L 376.55 324.95
Q 347.7193359375 328.296875 346.15 342.45
M 404.45 346.3
L 404.45 345.2
Q 419.3458984375 346.4603515625 444.6 346.1 469.9119140625 345.7857421875 474.35 345.9 478.7806640625 346.0087890625 470.9 347.1 463.021875 348.1951171875 440.55 348.55 418.12109375 348.900390625 404.45 346.3
M 609.45 477.2
Q 636.0451171875 463.6306640625 644.45 435.45 580.7306640625 459.5166015625 518.95 439.45 527 464.85 552.45 477.2 581.9 490.15 609.45 477.2 Z"/>
</g>
</g>
</g>
</g>

<g id="blink7">
<g>
<g>
<g>
<path fill="#FFFFFF" stroke="none" d="
M 727.7 312.95
L 670.8 314.2
Q 642.55 325.9 642.2 343.7 641.8 361.5 673.3 376.2
L 728.7 379.45
Q 756.5 379.5 776.45 374.95 812 365.45 812.75 346.45 813.45 327.4 794.35 320.05 775.25 312.7 727.7 312.95
M 701.45 353.8
L 700.7 339.2
Q 713.75 337.5 731.85 338.2 763.35 339.4 771.2 343.9 779 348.35 768.75 352.25 758.45 356.15 731.8 356.3 713.9 356.4 701.45 353.8
M 374.05 314.2
Q 345.7861328125 325.8810546875 345.4 343.7 345.0638671875 361.524609375 376.55 376.2
L 431.95 379.45
Q 459.74375 379.478125 479.7 374.95 515.25 365.432421875 515.95 346.4 516.7009765625 327.4109375 497.6 320.05 478.4986328125 312.691796875 430.95 312.95
L 374.05 314.2
M 404.7 353.8
L 403.95 339.2
Q 417.0091796875 337.5150390625 435.1 338.2 466.6001953125 339.41171875 474.4 343.85 482.24921875 348.3369140625 471.95 352.25 461.7015625 356.166796875 435.05 356.3 417.136328125 356.401953125 404.7 353.8
M 609.45 477.2
Q 636.0451171875 463.6306640625 644.45 435.45 580.7306640625 459.5166015625 518.95 439.45 527 464.85 552.45 477.2 581.9 490.15 609.45 477.2 Z"/>
</g>
</g>
</g>
</g>

<g id="blink8">
<g>
<g>
<g>
<path fill="#FFFFFF" stroke="none" d="
M 728.1 311.5
L 671.2 314.25
Q 642.55 324.8 642.15 344.1 641.75 363.35 673.45 377.75 701.3 380 729.6 380.5 756.2 381.85 783.9 374.15 811.6 366.45 812.75 346.8 813.85 327.15 794.75 319.1 775.65 311.05 728.1 311.5
M 701.6 354.35
L 700.6 338.75
Q 714.15 337.55 732.25 338.25 763.75 339.45 771.8 344.15 779.85 348.85 769.4 352.55 758.85 356.25 736.6 356.35 714.3 356.45 701.6 354.35
M 374.05 314.2
Q 345.3986328125 324.746875 345 344 344.6103515625 363.2953125 376.3 377.7 404.125 379.9689453125 432.45 380.45 459.0548828125 381.781640625 486.75 374.1 514.444921875 366.410546875 515.55 346.75 516.7046875 327.0869140625 497.6 319.05 478.4986328125 311.0201171875 430.95 311.45
L 374.05 314.2
M 404.45 354.3
L 403.45 338.7
Q 417.0091796875 337.5150390625 435.1 338.2 466.59453125 339.40625 474.65 344.1 482.71640625 348.803515625 472.2 352.5 461.724609375 356.19375 439.4 356.3 417.1326171875 356.4029296875 404.45 354.3
M 609.45 477.2
Q 636.0451171875 463.6306640625 644.45 435.45 580.7306640625 459.5166015625 518.95 439.45 527 464.85 552.45 477.2 581.9 490.15 609.45 477.2 Z"/>
</g>
</g>
</g>
</g>

<g id="blink9">
<g>
<g>
<g>
<path fill="#FFFFFF" stroke="none" d="
M 792.95 303.95
Q 772.4 289.5 730.05 288.2
L 662.4 288.95
Q 619.35 339.65 661.9 405.7
L 729.8 408.7
Q 758.2 409.55 781.3 398.7 813.95 382.85 813.75 350.65 813.5 318.4 792.95 303.95
M 700.8 321.2
L 728.7 319.7
Q 762 322.75 771.75 336.2 781.5 349.65 768.3 361.8 755.1 373.95 727.15 375.05 713.3 375.95 701.8 374.3
L 700.8 321.2
M 432.95 288.2
L 365.3 288.95
Q 322.2333984375 339.625 364.8 405.7
L 432.7 408.7
Q 461.0884765625 409.56328125 484.2 398.7 516.85078125 382.8599609375 516.6 350.6 516.4072265625 318.382421875 495.85 303.95 475.2927734375 289.516015625 432.95 288.2
M 404.7 374.3
L 403.7 321.2 431.6 319.7
Q 464.9240234375 322.7712890625 474.65 336.2 484.3833984375 349.6326171875 471.2 361.8 458.0171875 373.9650390625 430.05 375.05 416.21015625 375.930078125 404.7 374.3
M 609.45 477.2
Q 636.0451171875 463.6306640625 644.45 435.45 580.7306640625 459.5166015625 518.95 439.45 527 464.85 552.45 477.2 581.9 490.15 609.45 477.2 Z"/>
</g>
</g>
</g>
</g>

<g id="blink10">
<g>
<g>
<g>
<path fill="#FFFFFF" stroke="none" d="
M 791.95 296.75
Q 770.55 277.05 730.05 274.2
L 660.15 275.2
Q 634.05 344.05 660.4 422.95
L 728.8 422.95
Q 767.7 421.4 784.55 407.7 814.3 384.55 813.85 350.5 813.35 316.45 791.95 296.75
M 700.05 311.7
Q 714.5 308.15 728.95 309.7 761.7 315.25 771.25 333 780.75 350.7 767.85 366.6 754.9 382.45 727.9 386.55
L 700.8 385.8 700.05 311.7
M 433.45 274.2
L 363.55 275.2
Q 337.43125 344.043359375 363.8 422.95
L 432.2 422.95
Q 471.1193359375 421.41796875 487.95 407.7 517.7111328125 384.5546875 517.2 350.5 516.73984375 316.448046875 495.35 296.75 473.9609375 277.0435546875 433.45 274.2
M 404.2 385.8
L 403.45 311.7
Q 417.9 308.1544921875 432.35 309.7 465.1177734375 315.2607421875 474.65 332.95 484.1732421875 350.6818359375 471.2 366.55 458.279296875 382.47109375 431.3 386.55
L 404.2 385.8
M 609.45 477.2
Q 636.0451171875 463.6306640625 644.45 435.45 580.7306640625 459.5166015625 518.95 439.45 527 464.85 552.45 477.2 581.9 490.15 609.45 477.2 Z"/>
</g>
</g>
</g>
</g>

<g id="blink11">
<g>
<g>
<g>
<path fill="#FFFFFF" stroke="none" d="
M 791.95 296.75
Q 770.55 277.05 730.05 274.2
L 660.15 275.2
Q 637.95 343.25 660.4 422.95
L 728.8 422.95
Q 767.7 421.4 784.55 407.7 814.3 384.55 813.85 350.5 813.35 316.45 791.95 296.75
M 727.9 386.55
L 700.8 385.8 700.05 311.7
Q 714.5 309.6 730.45 310.45 761.7 315.25 771.25 333 780.75 350.7 767.85 366.6 754.9 382.45 727.9 386.55
M 433.45 274.2
L 363.55 275.2
Q 341.3515625 343.259375 363.8 422.95
L 432.2 422.95
Q 471.1193359375 421.41796875 487.95 407.7 517.7111328125 384.5546875 517.2 350.5 516.73984375 316.448046875 495.35 296.75 473.9609375 277.0435546875 433.45 274.2
M 404.2 385.8
L 403.45 311.7
Q 417.9 309.5970703125 433.85 310.45 465.1177734375 315.2607421875 474.65 332.95 484.1732421875 350.6818359375 471.2 366.55 458.279296875 382.47109375 431.3 386.55
L 404.2 385.8
M 609.45 477.2
Q 636.0451171875 463.6306640625 644.45 435.45 580.7306640625 459.5166015625 518.95 439.45 527 464.85 552.45 477.2 581.9 490.15 609.45 477.2 Z"/>
</g>
</g>
</g>
</g>

<g id="blink12">
<g>
<g>
<g>
<path fill="#FFFFFF" stroke="none" d="
M 792.1 285.8
Q 771.65 258.9 732.8 250.95
L 660.9 252.2 660.9 447.95 731.3 445.95
Q 765.1 443.05 789.3 416.95 815.05 383.7 813.8 348.2 812.5 312.65 792.1 285.8
M 730.95 297.45
Q 759.75 304.95 770.15 328.35 779.15 348.7 769.3 371.45 759.1 396 727.4 400.05
L 699.3 400.05 699.3 297.45 730.95 297.45
M 436.45 250.95
L 364.55 252.2 364.55 447.95 434.95 445.95
Q 468.7359375 443.047265625 492.95 416.95 518.6814453125 383.6921875 517.4 348.15 516.1484375 312.6447265625 495.7 285.75 475.3123046875 258.9140625 436.45 250.95
M 434.6 297.45
Q 463.398828125 304.9693359375 473.8 328.35 482.77734375 348.7171875 472.95 371.45 462.765234375 396.015234375 431.05 400.05
L 402.95 400.05 402.95 297.45 434.6 297.45
M 610.5 476.75
Q 636.3513671875 460.186328125 644 435 578.092578125 459.3265625 518.5 438 528.0626953125 464.378515625 553.5 476.75 582.925390625 489.7060546875 610.5 476.75 Z"/>
</g>
</g>
</g>
</g>
</svg>
