
<svg xmlns="http://www.w3.org/2000/svg" version="1.1" xmlns:xlink="http://www.w3.org/1999/xlink" preserveAspectRatio="none" x="0px" y="0px" width="800px" height="800px" viewBox="0 0 800 800">
<defs>
<radialGradient id="Gradient_1" gradientUnits="userSpaceOnUse" cx="0" cy="0" r="71.04999999999995" fx="0" fy="0" gradientTransform="matrix( 1.0000000000000007, 0, 0, 1.0000000000000007, 658.15,446.1) " spreadMethod="pad">
<stop  offset="0%" stop-color="#DFDFDF"/>

<stop  offset="100%" stop-color="#383838"/>
</radialGradient>

<linearGradient id="Gradient_2" gradientUnits="userSpaceOnUse" x1="688.15" y1="428.7625" x2="598.15" y2="360.7375" spreadMethod="pad">
<stop  offset="0%" stop-color="#999999"/>

<stop  offset="9.411764705882353%" stop-color="#FFFFFF"/>

<stop  offset="20.392156862745097%" stop-color="#999999"/>

<stop  offset="54.509803921568626%" stop-color="#333333"/>
</linearGradient>

<linearGradient id="Gradient_3" gradientUnits="userSpaceOnUse" x1="260.9875" y1="692.6875" x2="149.0125" y2="691.7125000000001" spreadMethod="pad">
<stop  offset="0%" stop-color="#999999"/>

<stop  offset="9.411764705882353%" stop-color="#FFFFFF"/>

<stop  offset="20.392156862745097%" stop-color="#999999"/>

<stop  offset="54.509803921568626%" stop-color="#333333"/>
</linearGradient>

<radialGradient id="Gradient_4" gradientUnits="userSpaceOnUse" cx="0" cy="0" r="82.75" fx="0" fy="0" gradientTransform="matrix( 1, 0, 0, 1, 235.05,617.15) " spreadMethod="pad">
<stop  offset="0%" stop-color="#DFDFDF"/>

<stop  offset="100%" stop-color="#383838"/>
</radialGradient>

<radialGradient id="Gradient_5" gradientUnits="userSpaceOnUse" cx="0" cy="0" r="258.5" fx="0" fy="0" gradientTransform="matrix( 1.0000000000000002, 0, 0, 1.0000000000000002, 319.1,526.1) " spreadMethod="pad">
<stop  offset="0%" stop-color="#999999"/>

<stop  offset="88.62745098039215%" stop-color="#666666"/>
</radialGradient>

<radialGradient id="Gradient_6" gradientUnits="userSpaceOnUse" cx="0" cy="0" r="55.35000000000002" fx="0" fy="0" gradientTransform="matrix( 0.9999999999999996, 0, 0, 0.9999999999999996, 223.05,431.1) " spreadMethod="pad">
<stop  offset="0%" stop-color="#5A5A5A"/>

<stop  offset="100%" stop-color="#383838"/>
</radialGradient>

<radialGradient id="Gradient_7" gradientUnits="userSpaceOnUse" cx="0" cy="0" r="87.15000000000003" fx="0" fy="0" gradientTransform="matrix( 0.9999999999999997, 0, 0, 0.9999999999999997, 220.05,341.05) " spreadMethod="pad">
<stop  offset="0%" stop-color="#DFDFDF"/>

<stop  offset="100%" stop-color="#383838"/>
</radialGradient>

<radialGradient id="Gradient_8" gradientUnits="userSpaceOnUse" cx="0" cy="0" r="129.50000000000003" fx="0" fy="0" gradientTransform="matrix( 0.9999999999999999, 0, 0, 0.9999999999999999, 236.1,308.05) " spreadMethod="pad">
<stop  offset="0%" stop-color="#999999"/>

<stop  offset="88.62745098039215%" stop-color="#666666"/>
</radialGradient>

<radialGradient id="Gradient_9" gradientUnits="userSpaceOnUse" cx="0" cy="0" r="96.85000000000002" fx="0" fy="0" gradientTransform="matrix( 0.9999999999999999, 0, 0, 0.9999999999999999, 562.15,269.05) " spreadMethod="pad">
<stop  offset="0%" stop-color="#DFDFDF"/>

<stop  offset="100%" stop-color="#383838"/>
</radialGradient>

<radialGradient id="Gradient_10" gradientUnits="userSpaceOnUse" cx="0" cy="0" r="62.10000000000002" fx="0" fy="0" gradientTransform="matrix( 0.9999999999999998, 0, 0, 0.9999999999999998, 554.15,371.1) " spreadMethod="pad">
<stop  offset="0%" stop-color="#5A5A5A"/>

<stop  offset="100%" stop-color="#383838"/>
</radialGradient>

<radialGradient id="Gradient_11" gradientUnits="userSpaceOnUse" cx="0" cy="0" r="213.10000000000002" fx="0" fy="0" gradientTransform="matrix( 1, 0, 0, 1, 548.6,384.05) " spreadMethod="pad">
<stop  offset="0%" stop-color="#B7AFAF"/>

<stop  offset="100%" stop-color="#EAEAEA"/>
</radialGradient>

<radialGradient id="Gradient_12" gradientUnits="userSpaceOnUse" cx="0" cy="0" r="302.19999999999993" fx="0" fy="0" gradientTransform="matrix( 1.0000000000000002, 0, 0, 1.0000000000000002, 384.1,175.05) " spreadMethod="pad">
<stop  offset="0%" stop-color="#DFDFDF"/>

<stop  offset="100%" stop-color="#383838"/>
</radialGradient>

<radialGradient id="Gradient_13" gradientUnits="userSpaceOnUse" cx="0" cy="0" r="32.412499999999994" fx="0" fy="0" gradientTransform="matrix( 1.0000000000000002, 0, 0, 1.0000000000000002, 122.5,210.8) " spreadMethod="pad">
<stop  offset="0.7843137254901961%" stop-color="#B096FF"/>

<stop  offset="100%" stop-color="#6633FF"/>
</radialGradient>

<radialGradient id="Gradient_14" gradientUnits="userSpaceOnUse" cx="0" cy="0" r="19.80000000000001" fx="0" fy="0" gradientTransform="matrix( 0.9999999999999994, 0, 0, 0.9999999999999994, 471.9,113.05) " spreadMethod="pad">
<stop  offset="0.7843137254901961%" stop-color="#B096FF"/>

<stop  offset="100%" stop-color="#6633FF"/>
</radialGradient>

<radialGradient id="Gradient_15" gradientUnits="userSpaceOnUse" cx="0" cy="0" r="8.5" fx="0" fy="0" gradientTransform="matrix( 1, 0, 0, 1, 390.5,651.95) " spreadMethod="pad">
<stop  offset="0.7843137254901961%" stop-color="#B096FF"/>

<stop  offset="100%" stop-color="#6633FF"/>
</radialGradient>

<radialGradient id="Gradient_16" gradientUnits="userSpaceOnUse" cx="0" cy="0" r="8.850000000000023" fx="0" fy="0" gradientTransform="matrix( 0.9999999999999976, 0, 0, 0.9999999999999976, 359.05,652.1) " spreadMethod="pad">
<stop  offset="0.7843137254901961%" stop-color="#B096FF"/>

<stop  offset="100%" stop-color="#6633FF"/>
</radialGradient>

<radialGradient id="Gradient_17" gradientUnits="userSpaceOnUse" cx="0" cy="0" r="8.5" fx="0" fy="0" gradientTransform="matrix( 1, 0, 0, 1, 486.55,651.85) " spreadMethod="pad">
<stop  offset="0.7843137254901961%" stop-color="#B096FF"/>

<stop  offset="100%" stop-color="#6633FF"/>
</radialGradient>

<radialGradient id="Gradient_18" gradientUnits="userSpaceOnUse" cx="0" cy="0" r="8.5" fx="0" fy="0" gradientTransform="matrix( 1, 0, 0, 1, 455.55,651.85) " spreadMethod="pad">
<stop  offset="0.7843137254901961%" stop-color="#B096FF"/>

<stop  offset="100%" stop-color="#6633FF"/>
</radialGradient>

<radialGradient id="Gradient_19" gradientUnits="userSpaceOnUse" cx="0" cy="0" r="8.5" fx="0" fy="0" gradientTransform="matrix( 1, 0, 0, 1, 422.55,651.85) " spreadMethod="pad">
<stop  offset="0.7843137254901961%" stop-color="#B096FF"/>

<stop  offset="100%" stop-color="#6633FF"/>
</radialGradient>
</defs>

<g id="r_arm">
<g>
<g>
<g>
<path fill="#161419" stroke="none" d="
M 494.05 510.5
L 500.25 527.65
Q 524.4705078125 524.044140625 527.15 523.9 523.1294921875 516.4875 526.9 509.05 522.8001953125 509.348046875 494.05 510.5
M 535 508.3
Q 534.3029296875 508.4041015625 533.6 508.45 530.3107421875 508.8275390625 526.9 509.05 523.1294921875 516.4875 527.15 523.9 530.4240234375 523.7326171875 533.6 523.45 535.03515625 523.359375 536.45 523.2 532.76796875 515.775 535 508.3
M 579.6 513.2
Q 581.4029296875 512.493359375 583.15 511.7 581.0837890625 510.33359375 579.6 508.35 576.35703125 504.12265625 575.9 497.05 572.2794921875 498.863671875 568.35 500.4 569.209765625 510.7412109375 573.8 515.45 576.76875 514.405078125 579.6 513.2
M 589.6 508.5
Q 592.301171875 507.0474609375 594.85 505.45 591.751171875 504.45703125 589.6 502.5 585.58828125 498.894921875 584.85 491.95 582.325 493.6361328125 579.6 495.15 577.788671875 496.1427734375 575.9 497.05 576.35703125 504.12265625 579.6 508.35 581.0837890625 510.33359375 583.15 511.7 586.476953125 510.195703125 589.6 508.5
M 555.2 520.5
Q 551.437109375 513.9939453125 551.65 505.5 547.540625 506.4421875 543.2 507.15 541.8880859375 514.6 546.4 522 550.9134765625 521.36484375 555.2 520.5
M 543.2 507.15
Q 539.2009765625 507.83828125 535 508.3 532.76796875 515.775 536.45 523.2 541.555078125 522.74140625 546.4 522 541.8880859375 514.6 543.2 507.15
M 565.1 518.15
Q 558.3185546875 512.477734375 561.15 502.9 556.57890625 504.371875 551.65 505.5 551.437109375 513.9939453125 555.2 520.5 560.3083984375 519.4841796875 565.1 518.15
M 561.15 502.9
Q 558.3185546875 512.477734375 565.1 518.15 569.583984375 516.9310546875 573.8 515.45 569.209765625 510.7412109375 568.35 500.4 564.8890625 501.7697265625 561.15 502.9
M 597.15 482.1
Q 595.1931640625 484.0359375 593.1 485.8 595.080078125 496.846875 604.75 498.2 608.2990234375 495.2572265625 611.45 491.95 600.42265625 487.9390625 597.15 482.1
M 589.6 488.65
Q 587.31640625 490.3806640625 584.85 491.95 585.58828125 498.894921875 589.6 502.5 591.751171875 504.45703125 594.85 505.45 600.1361328125 502.127734375 604.75 498.2 595.080078125 496.846875 593.1 485.8 591.3990234375 487.27890625 589.6 488.65 Z"/>

<path fill="url(#Gradient_1)" stroke="none" d="
M 623.15 398.1
Q 584.606640625 425.3646484375 597.15 482.1 600.42265625 487.9390625 611.45 491.95 623.39765625 496.2330078125 632.15 496.1 673.4021484375 491.1087890625 695.2 451.1 665.139453125 416.6474609375 623.15 398.1 Z"/>

<path fill="url(#Gradient_2)" stroke="none" d="
M 695.2 451.1
L 711.2 434.05
Q 676.912109375 394.101171875 636.15 380.05
L 623.15 398.1
Q 665.139453125 416.6474609375 695.2 451.1 Z"/>
</g>
</g>

<g>
<path stroke="#333333" stroke-width="1" stroke-linejoin="round" stroke-linecap="round" fill="none" d="
M 623.15 398.1
L 636.15 380.05
Q 676.912109375 394.101171875 711.2 434.05
L 695.2 451.1
Q 673.4021484375 491.1087890625 632.15 496.1 623.39765625 496.2330078125 611.45 491.95 608.2990234375 495.2572265625 604.775 498.225 600.1361328125 502.127734375 594.85 505.45 592.301171875 507.0474609375 589.6 508.5 586.476953125 510.195703125 583.15 511.7 581.4029296875 512.493359375 579.6 513.225 576.76875 514.405078125 573.8 515.45 569.583984375 516.9310546875 565.1 518.175 560.3083984375 519.4841796875 555.2 520.5 550.9134765625 521.36484375 546.4 522.025 541.555078125 522.74140625 536.45 523.225 535.03515625 523.359375 533.6 523.475 530.4240234375 523.7326171875 527.15 523.9 524.4705078125 524.044140625 500.25 527.65
L 494.05 510.5
Q 522.8001953125 509.348046875 526.9 509.075 530.3107421875 508.8275390625 533.6 508.475 534.3029296875 508.4041015625 535 508.325 539.2009765625 507.83828125 543.2 507.175 547.540625 506.4421875 551.65 505.5 556.57890625 504.371875 561.175 502.925 564.8890625 501.7697265625 568.375 500.4 572.2794921875 498.863671875 575.9 497.075 577.788671875 496.1427734375 579.6 495.15 582.325 493.6361328125 584.875 491.975 587.31640625 490.3806640625 589.6 488.65 591.3990234375 487.27890625 593.1 485.825 595.1931640625 484.0359375 597.15 482.1 584.606640625 425.3646484375 623.15 398.1 665.139453125 416.6474609375 695.2 451.1
M 611.45 491.95
Q 600.42265625 487.9390625 597.15 482.1"/>
</g>

<g>
<path stroke="#666666" stroke-width="1" stroke-linejoin="round" stroke-linecap="round" fill="none" d="
M 561.175 502.925
Q 558.3185546875 512.477734375 565.1 518.175
M 551.65 505.5
Q 551.437109375 513.9939453125 555.2 520.5
M 543.2 507.175
Q 541.8880859375 514.6 546.4 522.025
M 535 508.325
Q 532.76796875 515.775 536.45 523.225
M 526.9 509.075
Q 523.1294921875 516.4875 527.15 523.9
M 584.875 491.975
Q 585.58828125 498.894921875 589.6 502.525 591.751171875 504.45703125 594.85 505.45
M 575.9 497.075
Q 576.35703125 504.12265625 579.6 508.375 581.0837890625 510.33359375 583.15 511.7
M 568.375 500.4
Q 569.209765625 510.7412109375 573.8 515.45
M 593.1 485.825
Q 595.080078125 496.846875 604.775 498.225"/>
</g>
</g>
</g>

<g id="l_arm">
<g>
<g>
<g>
<path fill="url(#Gradient_3)" stroke="none" d="
M 268.05 676.15
Q 224.473046875 687.68828125 177.05 676.15
L 177.05 700.15
Q 222.55 717.8533203125 268.05 700.15
L 268.05 676.15 Z"/>

<path fill="#161419" stroke="none" d="
M 255.5 557.05
Q 253.2017578125 549.993359375 243 544.85 239.425390625 548.8740234375 236.1 553.35 243.8033203125 553.44296875 249.7 564.2 252.3822265625 560.446875 255.5 557.05
M 243 544.85
Q 253.2017578125 549.993359375 255.5 557.05 259.0123046875 553.311328125 263.05 550 258.892578125 539.8455078125 249.55 538.2 246.1849609375 541.353125 243 544.85
M 258.2 531.15
Q 253.7330078125 534.3970703125 249.55 538.2 258.892578125 539.8455078125 263.05 550 266.3935546875 547.3279296875 270.1 544.95 269.06328125 535.1095703125 258.2 531.15
M 278 540.45
Q 277.0916015625 528.833203125 268.85 524.5 263.326953125 527.4625 258.2 531.15 269.06328125 535.1095703125 270.1 544.95 273.854296875 542.5369140625 278 540.45
M 268.85 524.5
Q 277.0916015625 528.833203125 278 540.45 281.99296875 538.436328125 286.35 536.7 288.6375 527.9375 281.1 519.15 274.749609375 521.4146484375 268.85 524.5
M 302.6 514.1
Q 308.571875 522.8375 303.05 531.55 307.953125 530.414453125 313.2 529.55 317.528515625 522.320703125 312.65 513.25 307.5068359375 513.4779296875 302.6 514.1
M 302.6 514.1
Q 296.705859375 514.8544921875 291.15 516.15 290.6236328125 516.301171875 290.1 516.4 285.4984375 517.5873046875 281.1 519.15 288.6375 527.9375 286.35 536.7 288.1916015625 536.0048828125 290.1 535.3 291.3603515625 534.8943359375 292.65 534.45 293.798046875 534.100390625 294.95 533.75 298.4708984375 524.972265625 293.15 516.2 298.4708984375 524.972265625 294.95 533.75 298.885546875 532.5537109375 303.05 531.55 308.571875 522.8375 302.6 514.1
M 320.8 513.15
L 320.8 513.1
Q 316.6533203125 513.0603515625 312.65 513.25 317.528515625 522.320703125 313.2 529.55 315.7111328125 529.147265625 318.3 528.8 319.4201171875 520.9701171875 320.8 513.15
M 225.45 570.6
Q 236.3109375 571.7560546875 241.3 579.4 243.1556640625 574.964453125 245.45 570.9 239.8576171875 561.8 230.9 561.05 228.0783203125 565.603515625 225.45 570.6
M 221.45 578.85
Q 218.612109375 585.2673828125 216.1 592.3 221.2005859375 591.576171875 227.05 592.15 232.092578125 592.91875 236.65 594.4 237.3271484375 591.35625 238.15 588.4 238.1810546875 588.366015625 238.2 588.3 229.603125 579.1255859375 221 581.4 229.603125 579.1255859375 238.2 588.3 238.5404296875 587.1353515625 238.9 586 239.9990234375 582.604296875 241.3 579.4 236.3109375 571.7560546875 225.45 570.6 223.39921875 574.5919921875 221.45 578.85
M 236.1 553.35
Q 233.43125 557.040234375 230.9 561.05 239.8576171875 561.8 245.45 570.9 247.40234375 567.4078125 249.7 564.2 243.8033203125 553.44296875 236.1 553.35 Z"/>

<path fill="url(#Gradient_4)" stroke="none" d="
M 227.05 592.15
Q 221.2005859375 591.576171875 216.1 592.3 200.8390625 594.4408203125 192.4 608.2 170.67109375 643.65 177.05 676.15 224.473046875 687.68828125 268.05 676.15 275.059765625 651.880859375 268.05 624.15 257.606640625 601.39765625 236.65 594.4 232.092578125 592.91875 227.05 592.15 Z"/>
</g>
</g>

<g>
<path stroke="#333333" stroke-width="1" stroke-linejoin="round" stroke-linecap="round" fill="none" d="
M 236.125 553.375
Q 233.43125 557.040234375 230.925 561.05
M 249.7 564.2
Q 247.40234375 567.4078125 245.45 570.9
M 236.125 553.375
Q 239.425390625 548.8740234375 243.025 544.875 246.1849609375 541.353125 249.575 538.225 253.7330078125 534.3970703125 258.225 531.15 263.326953125 527.4625 268.875 524.525 274.749609375 521.4146484375 281.125 519.15 285.4984375 517.5873046875 290.1 516.425 290.6236328125 516.301171875 291.15 516.175 296.705859375 514.8544921875 302.6 514.1 307.5068359375 513.4779296875 312.65 513.25 316.6533203125 513.0603515625 320.8 513.125
M 320.8 513.15
Q 319.4201171875 520.9701171875 318.3 528.8 315.7111328125 529.147265625 313.2 529.55 307.953125 530.414453125 303.05 531.575 298.885546875 532.5537109375 294.975 533.75 293.798046875 534.100390625 292.65 534.475 291.3603515625 534.8943359375 290.1 535.325 288.1916015625 536.0048828125 286.35 536.725 281.99296875 538.436328125 278 540.45 273.854296875 542.5369140625 270.1 544.95 266.3935546875 547.3279296875 263.075 550.025 259.0123046875 553.311328125 255.525 557.075 252.3822265625 560.446875 249.7 564.2
M 225.475 570.6
Q 223.39921875 574.5919921875 221.475 578.875 218.612109375 585.2673828125 216.1 592.3 221.2005859375 591.576171875 227.05 592.15 232.092578125 592.91875 236.65 594.425 237.3271484375 591.35625 238.15 588.425
M 245.45 570.9
Q 243.1556640625 574.964453125 241.325 579.4 239.9990234375 582.604296875 238.9 586 238.5404296875 587.1353515625 238.2 588.3
M 230.925 561.05
Q 228.0783203125 565.603515625 225.475 570.6
M 268.05 676.15
Q 275.059765625 651.880859375 268.05 624.15 257.606640625 601.39765625 236.65 594.425
M 177.05 676.15
Q 170.67109375 643.65 192.4 608.2 200.8390625 594.4408203125 216.1 592.3
M 177.05 676.15
Q 224.473046875 687.68828125 268.05 676.15
L 268.05 700.15
Q 222.55 717.8533203125 177.05 700.15
L 177.05 676.15 Z"/>
</g>

<g>
<path stroke="#FF0000" stroke-width="1" stroke-linejoin="round" stroke-linecap="round" fill="none" d="
M 238.2 588.3
Q 238.1810546875 588.366015625 238.15 588.425"/>
</g>

<g>
<path stroke="#666666" stroke-width="1" stroke-linejoin="round" stroke-linecap="round" fill="none" d="
M 230.925 561.05
Q 239.8576171875 561.8 245.45 570.9
M 236.125 553.375
Q 243.8033203125 553.44296875 249.7 564.2
M 221 581.4
Q 229.603125 579.1255859375 238.2 588.3
M 225.475 570.6
Q 236.3109375 571.7560546875 241.325 579.4
M 302.6 514.1
Q 308.571875 522.8375 303.05 531.575
M 293.15 516.2
Q 298.4708984375 524.972265625 294.975 533.75
M 312.65 513.25
Q 317.528515625 522.320703125 313.2 529.55
M 268.875 524.525
Q 277.0916015625 528.833203125 278 540.45
M 243.025 544.875
Q 253.2017578125 549.993359375 255.525 557.075
M 281.125 519.15
Q 288.6375 527.9375 286.35 536.725
M 258.225 531.15
Q 269.06328125 535.1095703125 270.1 544.95
M 249.575 538.225
Q 258.892578125 539.8455078125 263.075 550.025"/>
</g>
</g>
</g>

<g id="body">
<g>
<g>
<g>
<path fill="#161419" stroke="none" d="
M 453.95 804.9
L 488.45 804.9 487.3 790.3
Q 470.475 797.0443359375 453.65 788.6
L 453.95 804.9
M 453.05 777.1
L 453.65 788.6
Q 470.475 797.0443359375 487.3 790.3
L 486.85 776.7
Q 469.975 785.20078125 453.05 777.1
M 451.25 741.2
L 451.95 755.05
Q 469.0375 760.7642578125 486.1 752.7
L 485.65 738.7
Q 469.4578125 748.908203125 451.25 741.2
M 452.45 765.6
L 453.05 777.1
Q 469.975 785.20078125 486.85 776.7
L 486.45 763.15
Q 472.358203125 773.06171875 452.45 765.6
M 451.95 755.05
L 452.45 765.6
Q 472.358203125 773.06171875 486.45 763.15
L 486.1 752.7
Q 469.0375 760.7642578125 451.95 755.05
M 450.65 729.6
L 451.25 741.2
Q 469.4578125 748.908203125 485.65 738.7
L 485.3 727.15
Q 467.9875 734.026171875 450.65 729.6
M 450.15 719.1
L 450.65 729.6
Q 467.9875 734.026171875 485.3 727.15
L 484.95 715.65
Q 469.4578125 724.051953125 450.15 719.1
M 449.05 697.3
L 449.55 707.1
Q 469.03984375 713.1091796875 484.55 703.3
L 483.9 681.6 449.05 697.3
M 484.95 715.65
L 484.55 703.3
Q 469.03984375 713.1091796875 449.55 707.1
L 450.15 719.1
Q 469.4578125 724.051953125 484.95 715.65
M 385.6 804.9
L 385.35 792.15
Q 366.892578125 798.666796875 350.3 788.4
L 350.35 797.15 350.35 804.9 385.6 804.9
M 350.25 779.65
L 350.3 788.4
Q 366.892578125 798.666796875 385.35 792.15
L 385.1 779.65
Q 367.675 784.3810546875 350.25 779.65
M 384.7 749.15
L 384.6 734.15
Q 367.3125 740.022265625 350 734.15
L 350.05 749.65
Q 368.35234375 757.0189453125 384.7 749.15
M 350.15 762.15
L 350.25 779.65
Q 367.675 784.3810546875 385.1 779.65
L 384.8 765.2
Q 367.4875 771.06875 350.15 762.15
M 350.05 749.65
L 350.15 762.15
Q 367.4875 771.06875 384.8 765.2
L 384.7 749.15
Q 368.35234375 757.0189453125 350.05 749.65
M 384.5 710.65
L 384.45 701.4 349.8 695.25 349.85 709.15
Q 366.2998046875 717.0017578125 384.5 710.65
M 384.55 723.15
L 384.5 710.65
Q 366.2998046875 717.0017578125 349.85 709.15
L 349.95 722.65
Q 367.2625 729.5388671875 384.55 723.15
M 384.6 734.15
L 384.55 723.15
Q 367.2625 729.5388671875 349.95 722.65
L 350 734.15
Q 367.3125 740.022265625 384.6 734.15 Z"/>
</g>
</g>

<g>
<path stroke="#333333" stroke-width="3" stroke-linejoin="round" stroke-linecap="round" fill="none" d="
M 384.625 734.15
L 384.575 723.15
M 349.95 722.65
L 350 734.15
M 384.625 734.15
L 384.725 749.15 384.825 765.2 385.1 779.65 385.35 792.15 385.6 804.9
M 350.35 797.15
L 350.35 804.9
M 384.575 723.15
L 384.5 710.65
M 349.875 709.15
L 349.95 722.65
M 384.5 710.65
L 384.45 701.4
M 349.8 695.25
L 349.875 709.15
M 350.075 749.65
L 350.15 762.15 350.25 779.65 350.3 788.4
M 350 734.15
L 350.075 749.65
M 483.9 681.6
L 484.575 703.3 484.95 715.65 485.3 727.15 485.675 738.7 486.125 752.7 486.45 763.15 486.875 776.7 487.3 790.3 488.475 804.9
M 453.95 804.9
L 453.65 788.6 453.075 777.1 452.475 765.6 451.95 755.05 451.25 741.2 450.675 729.6 450.15 719.1 449.55 707.1 449.05 697.3
M 350.3 788.4
L 350.35 797.15"/>
</g>

<g>
<path stroke="#525252" stroke-width="2" stroke-linejoin="round" stroke-linecap="round" fill="none" d="
M 349.95 722.65
Q 367.2625 729.5388671875 384.575 723.15
M 350 734.15
Q 367.3125 740.022265625 384.625 734.15
M 349.875 709.15
Q 366.2998046875 717.0017578125 384.5 710.65
M 350.15 762.15
Q 367.4875 771.06875 384.825 765.2
M 350.25 779.65
Q 367.675 784.3810546875 385.1 779.65
M 350.3 788.4
Q 366.892578125 798.666796875 385.35 792.15
M 350.075 749.65
Q 368.35234375 757.0189453125 384.725 749.15
M 450.15 719.1
Q 469.4578125 724.051953125 484.95 715.65
M 449.55 707.1
Q 469.03984375 713.1091796875 484.575 703.3
M 450.675 729.6
Q 467.9875 734.026171875 485.3 727.15
M 451.25 741.2
Q 469.4578125 748.908203125 485.675 738.7
M 453.075 777.1
Q 469.975 785.20078125 486.875 776.7
M 452.475 765.6
Q 472.358203125 773.06171875 486.45 763.15
M 451.95 755.05
Q 469.0375 760.7642578125 486.125 752.7
M 453.65 788.6
Q 470.475 797.0443359375 487.3 790.3"/>
</g>

<g>
<path stroke="#525252" stroke-width="3" stroke-linejoin="round" stroke-linecap="round" fill="none" d="
M 349.15 797.15
L 350.35 797.15"/>
</g>
</g>

<g>
<g>
<g>
<path fill="#161419" stroke="none" d="
M 450.55 457.1
L 450.55 444.15 395.45 454.75 395.35 457.1
Q 428.68125 448.521875 450.55 457.1
M 450.55 493.3
L 450.55 485.1
Q 422.5 476.758984375 394.45 485.6
L 394.2 493.15
Q 422.2361328125 492.6962890625 450.55 493.3
M 450.55 485.1
L 450.55 470.1
Q 422.75 463.25078125 394.95 470.2
L 394.45 485.6
Q 422.5 476.758984375 450.55 485.1
M 450.55 470.1
L 450.55 457.1
Q 428.68125 448.521875 395.35 457.1
L 394.95 470.2
Q 422.75 463.25078125 450.55 470.1 Z"/>

<path fill="#A1A0A0" stroke="none" d="
M 508.9 524.2
Q 507.2203125 516.8166015625 505.2 509.45 503.2619140625 502.34296875 501 495.25 475.6685546875 493.85234375 450.55 493.3 422.2361328125 492.6962890625 394.2 493.15 365.9591796875 493.663671875 338 495.25 336.0779296875 503.61171875 334.45 512 332.9052734375 520.3619140625 331.65 528.75 319.8822265625 607.67734375 337.05 690.45 430.721875 700.0599609375 508.5 681.85 526.215234375 600.46875 508.9 524.2 Z"/>

<path fill="#D1D0D1" stroke="none" d="
M 518.5 509.45
Q 516.961328125 502.80546875 501 495.25 503.2619140625 502.34296875 505.2 509.45 507.2203125 516.8166015625 508.9 524.2 526.215234375 600.46875 508.5 681.85
L 518.1 681.4
Q 538.09765625 606.2947265625 521.7 524.1 520.275 516.8228515625 518.5 509.45 Z"/>

<path fill="url(#Gradient_5)" stroke="none" d="
M 320.8 513.15
Q 319.4201171875 520.9701171875 318.3 528.8 306.5740234375 610.0181640625 321.55 691.25 322.7421875 697.69921875 324.1 704.15 332.299609375 704.2529296875 340.15 704.3 474.4919921875 705.56796875 506.4 697.9 514.96171875 695.847265625 516.15 693.15 517.1978515625 687.29765625 518.1 681.4
L 508.5 681.85
Q 430.721875 700.0599609375 337.05 690.45 319.8822265625 607.67734375 331.65 528.75 332.9052734375 520.3619140625 334.45 512 336.0779296875 503.61171875 338 495.25 331.0419921875 495.6375 320.8 513.15 Z"/>
</g>
</g>

<g>
<path stroke="#333333" stroke-width="2" stroke-linejoin="round" stroke-linecap="round" fill="none" d="
M 394.2 493.175
L 394.45 485.6 394.95 470.2 395.375 457.1
M 450.55 444.15
L 450.55 457.1 450.55 470.1 450.55 485.1 450.55 493.3"/>
</g>

<g>
<path stroke="#666666" stroke-width="2" stroke-linejoin="round" stroke-linecap="round" fill="none" d="
M 394.45 485.6
Q 422.5 476.758984375 450.55 485.1
M 394.95 470.2
Q 422.75 463.25078125 450.55 470.1
M 450.55 457.1
Q 428.68125 448.521875 395.375 457.1"/>
</g>

<g>
<path stroke="#666666" stroke-width="1" stroke-linejoin="round" stroke-linecap="round" fill="none" d="
M 395.45 454.775
L 450.55 444.15"/>
</g>
</g>
</g>

<g id="head">
<g>
<g>
<g>
<path fill="url(#Gradient_6)" stroke="none" d="
M 278.4 431.5
L 275.1 418.65
Q 226.208984375 442.391796875 217.7 421.05
L 217.65 421.05
Q 209.5587890625 425.799609375 211.15 435.1 219.98515625 444.2568359375 232.05 442.1
L 278.4 431.5 Z"/>

<path fill="url(#Gradient_7)" stroke="none" d="
M 248.75 315.5
Q 219.3435546875 314.9892578125 200.05 330.05 189.240625 331.4232421875 217.65 421.05
L 217.7 421.05
Q 226.208984375 442.391796875 275.1 418.65
L 248.75 315.5 Z"/>

<path fill="url(#Gradient_8)" stroke="none" d="
M 203.05 312.05
Q 184.731640625 320.158984375 186.05 340.05
L 211.15 435.1
Q 209.5587890625 425.799609375 217.65 421.05 189.240625 331.4232421875 200.05 330.05 219.3435546875 314.9892578125 248.75 315.5
L 245.05 301.05 203.05 312.05 Z"/>

<path fill="url(#Gradient_9)" stroke="none" d="
M 601.65 349.25
L 611.55 349.25
Q 602.250390625 294.283203125 585.35 241.65 556.125 246.3478515625 525.05 257.4
L 551.15 369.4
Q 576.9140625 361.8291015625 601.65 349.25 Z"/>

<path fill="#999999" stroke="none" d="
M 551.15 379.1
Q 549.6912109375 407.3009765625 542.95 382.45 542.9314453125 382.975390625 542.85 383.5
L 542.7 385.5 542.65 385.2
Q 539.1630859375 409.380078125 510.15 418.1 312.546875 472.885546875 295.8 452 300.657421875 465.2830078125 294.3 463.15 305.9421875 472.558984375 321.1 469.1
L 395.45 454.75 513.15 432.1
Q 557.596484375 415.42734375 551.15 379.1 Z"/>

<path fill="url(#Gradient_10)" stroke="none" d="
M 551.15 369.4
L 551.15 379.1 594.15 364.05
Q 608.7353515625 358.46328125 611.55 349.25
L 601.65 349.25
Q 576.9140625 361.8291015625 551.15 369.4 Z"/>

<path fill="url(#Gradient_11)" stroke="none" d="
M 525.05 245.7
L 523.15 236.05
Q 510.433984375 203.649609375 486.4 189.3 463.1697265625 179.68671875 474.2 195.95 498.2130859375 210.03515625 510.15 237.05
L 535.15 332.05
Q 537.6357421875 343.05703125 538.85 352.75
L 542.65 385.2 542.7 385.5 542.85 383.5
Q 542.9314453125 382.975390625 542.95 382.45 549.6912109375 407.3009765625 551.15 379.1
L 551.15 369.4 525.05 257.4
Q 556.125 246.3478515625 585.35 241.65 577.428515625 235.091015625 565.15 237.05
L 525.05 245.7 Z"/>

<path fill="#D9D9DA" stroke="none" d="
M 592.15 248.05
Q 589.7625 245.2548828125 585.35 241.65 602.250390625 294.283203125 611.55 349.25 613.5583984375 341.60234375 612.15 330.05 606.0755859375 284.1435546875 592.15 248.05 Z"/>

<path fill="url(#Gradient_12)" stroke="none" d="
M 450.95 186.1
Q 463.73203125 189.7892578125 474.2 195.95 463.1697265625 179.68671875 486.4 189.3 480.1501953125 185.5638671875 473.1 183.05 449.93671875 168.203125 423.1 168.05 364.1 160.1171875 305.1 194.05 272.1767578125 216.001171875 254.05 249.05 242.0111328125 267.5109375 245.05 301.05
L 248.75 315.5 275.1 418.65 278.4 431.5
Q 284.4431640625 455.221875 294.3 463.15 300.657421875 465.2830078125 295.8 452 295.1662109375 450.1947265625 294.3 448.1 267.7873046875 373.8525390625 259.05 296.05 252.35390625 257.4244140625 284.7 224.7 320.2904296875 188.5306640625 375.1 179.05 418.135546875 176.7107421875 450.95 186.1 Z"/>

<path fill="#B3B3B4" stroke="none" d="
M 474.2 195.95
Q 463.73203125 189.7892578125 450.95 186.1 418.135546875 176.7107421875 375.1 179.05 320.2904296875 188.5306640625 284.7 224.7 252.35390625 257.4244140625 259.05 296.05 267.7873046875 373.8525390625 294.3 448.1 295.1662109375 450.1947265625 295.8 452 312.546875 472.885546875 510.15 418.1 539.1630859375 409.380078125 542.65 385.2
L 538.85 352.75
Q 537.6357421875 343.05703125 535.15 332.05
L 510.15 237.05
Q 498.2130859375 210.03515625 474.2 195.95
M 515.15 358.05
Q 521.796875 380.48671875 497.15 395.1
L 342.1 428.1
Q 313.846875 430.20390625 304.1 410.1
L 283.1 320.05
Q 279.6724609375 291.6103515625 300.1 283.05
L 459.1 248.05
Q 489.5185546875 244.3673828125 497.15 267.05
L 515.15 358.05 Z"/>

<path fill="#191719" stroke="none" d="
M 497.15 395.1
Q 521.796875 380.48671875 515.15 358.05
L 497.15 267.05
Q 489.5185546875 244.3673828125 459.1 248.05
L 300.1 283.05
Q 279.6724609375 291.6103515625 283.1 320.05
L 304.1 410.1
Q 313.846875 430.20390625 342.1 428.1
L 497.15 395.1 Z"/>
</g>
</g>

<g>
<path stroke="#666666" stroke-width="1" stroke-linejoin="round" stroke-linecap="round" fill="none" d="
M 395.375 457.1
L 395.45 454.775"/>
</g>
</g>
</g>

<g id="l_antenna">
<g>
<g>
<path stroke="#333333" stroke-width="8" stroke-linejoin="round" stroke-linecap="round" fill="none" d="
M 138.3 225.05
Q 179.71484375 244.3638671875 213.575 309.3"/>
</g>
</g>

<g>
<g>
<g>
<path fill="url(#Gradient_13)" stroke="none" d="
M 149 193.3
Q 141.5 182.6 128.65 180.25 115.7 177.95 104.9 185.3 94.2 192.85 91.9 205.75 89.55 218.6 97 229.4 104.5 240.3 117.45 242.55 130.3 244.95 141.1 237.4 151.9 229.9 154.25 217.05 156.55 204.1 149 193.3 Z"/>
</g>
</g>

<g>
<path stroke="#333334" stroke-width="3" stroke-linejoin="round" stroke-linecap="round" fill="none" d="
M 154.25 217.05
Q 151.9 229.9 141.1 237.4 130.3 244.95 117.45 242.55 104.5 240.3 97 229.4 89.55 218.6 91.9 205.75 94.2 192.85 104.9 185.3 115.7 177.95 128.65 180.25 141.5 182.6 149 193.3 156.55 204.1 154.25 217.05 Z"/>
</g>
</g>
</g>

<g id="r_antenna">
<g>
<g>
<path stroke="#333333" stroke-width="8" stroke-linejoin="round" stroke-linecap="round" fill="none" d="
M 559.1 238.35
Q 555.33203125 173.8033203125 589.15 128"/>
</g>
</g>

<g transform="matrix( 1.63641357421875, 0, 0, 1.63641357421875, -173.7,-63.1) ">
<g>
<g>
<path fill="url(#Gradient_14)" stroke="none" d="
M 491.35 116.9
Q 492.75 109 488.15 102.4 483.55 95.85 475.7 94.4 467.8 93 461.2 97.5 454.65 102.1 453.25 110 451.8 117.85 456.35 124.45 460.95 131.1 468.85 132.5 476.7 133.95 483.3 129.35 489.9 124.75 491.35 116.9 Z"/>
</g>
</g>

<g transform="matrix( 0.611083984375, 0, 0, 0.611083984375, 106.1,38.55) ">
<path stroke="#333334" stroke-width="3" stroke-linejoin="round" stroke-linecap="round" fill="none" d="
M 630.3518096923829 128.1967468261719
Q 627.9790100097655 141.04259338378907 617.1786804199219 148.5700958251953 606.378350830078 156.09759826660155 593.532504272461 153.72479858398438 580.6048370361327 151.4338195800781 573.0773345947266 140.55166931152345 565.6316528320312 129.75133972167967 568.0044525146484 116.9054931640625 570.2954315185546 103.97782592773436 581.0139404296874 96.45032348632813 591.8142700195312 89.08646240234376 604.7419372558593 91.37744140625003 617.5877838134766 93.75024108886717 625.1152862548827 104.46875000000003 632.642788696289 115.26907958984376 630.3518096923829 128.1967468261719 Z"/>
</g>
</g>
</g>

<g id="display">
<g>
<g>
<g>
<path fill="url(#Gradient_15)" stroke="none" d="
M 398.9 651.95
Q 398.9 648.45 396.45 646 394 643.55 390.5 643.55 387 643.55 384.55 646 382.1 648.45 382.1 651.95 382.1 655.45 384.55 657.9 387 660.35 390.5 660.35 394 660.35 396.45 657.9 398.9 655.45 398.9 651.95 Z"/>

<path fill="url(#Gradient_16)" stroke="none" d="
M 353.5 657.9
Q 355.95 660.35 359.45 660.35 362.95 660.35 365.4 657.9 367.85 655.45 367.85 651.95 367.85 648.45 365.4 646 362.95 643.55 359.45 643.55 355.95 643.55 353.5 646 351.05 648.45 351.05 651.95 351.05 655.45 353.5 657.9 Z"/>

<path fill="url(#Gradient_17)" stroke="none" d="
M 478.15 651.85
Q 478.15 655.35 480.6 657.8 483.05 660.25 486.55 660.25 490.05 660.25 492.5 657.8 494.95 655.35 494.95 651.85 494.95 648.35 492.5 645.9 490.05 643.45 486.55 643.45 483.05 643.45 480.6 645.9 478.15 648.35 478.15 651.85 Z"/>

<path fill="url(#Gradient_18)" stroke="none" d="
M 461.5 657.8
Q 463.95 655.35 463.95 651.85 463.95 648.35 461.5 645.9 459.05 643.45 455.55 643.45 452.05 643.45 449.6 645.9 447.15 648.35 447.15 651.85 447.15 655.35 449.6 657.8 452.05 660.25 455.55 660.25 459.05 660.25 461.5 657.8 Z"/>

<path fill="url(#Gradient_19)" stroke="none" d="
M 428.5 657.8
Q 430.95 655.35 430.95 651.85 430.95 648.35 428.5 645.9 426.05 643.45 422.55 643.45 419.05 643.45 416.6 645.9 414.15 648.35 414.15 651.85 414.15 655.35 416.6 657.8 419.05 660.25 422.55 660.25 426.05 660.25 428.5 657.8 Z"/>

<path fill="#A9ACAC" stroke="none" d="
M 360.25 550.1
Q 359.5693359375 550.7892578125 358.9 551.5 358.5517578125 551.9 358.2 552.3 336.280859375 577.2078125 338.05 637.6
L 505.25 636.9
Q 509.25 596.5 491.7 562.35 475.87421875 533.320703125 437.3 526.85 434.720703125 526.4337890625 432 526.1 389.1 520.85 360.25 550.1
M 363.35 556.05
Q 363.4791015625 555.9486328125 363.55 555.8 364.7990234375 554.3689453125 366.1 553.05 392.2 526.6 431 531.35 434.320703125 531.75703125 437.45 532.3 471.0611328125 538.5037109375 485.05 564.15 500.9 595.05 497.3 631.6
L 444.45 631.85 444.45 631.8 346 632.25
Q 344.4572265625 578.8130859375 363.35 556.05 Z"/>

<path fill="#FFFEF6" stroke="none" d="
M 363.55 555.8
Q 363.4791015625 555.9486328125 363.35 556.05 344.4572265625 578.8130859375 346 632.25
L 444.45 631.8 444.45 631.85 497.3 631.6
Q 500.9 595.05 485.05 564.15 471.0611328125 538.5037109375 437.45 532.3 434.320703125 531.75703125 431 531.35 392.2 526.6 366.1 553.05 364.7990234375 554.3689453125 363.55 555.8
M 376.05 553.05
L 383.05 561.6 376.05 553.05
M 363.05 567.1
L 372.05 573.1 363.05 567.1
M 393.55 542.55
L 397.1 553.05 393.55 542.55
M 354.05 587.6
L 366.05 588.6 354.05 587.6
M 471.1 587.1
L 482.6 586.1 471.1 587.1
M 457.6 562.1
L 467.1 554.05 457.6 562.1
M 467.1 574.1
L 477.6 569.1 467.1 574.1
M 411.1 536.55
L 412.6 549.05 411.1 536.55
M 429.1 536.55
L 427.6 548.05 429.1 536.55
M 443.6 553.05
L 449.1 542.05 443.6 553.05
M 353.05 624.1
L 366.05 624.1 353.05 624.1
M 353.55 605.6
L 365.55 605.6 353.55 605.6
M 474.1 623.1
L 486.1 623.1 474.1 623.1
M 473.6 605.6
L 486.1 605.6 473.6 605.6 Z"/>
</g>
</g>

<g>
<path stroke="#CBCACA" stroke-width="2" stroke-linejoin="round" stroke-linecap="round" fill="none" d="
M 491.7 562.35
Q 475.87421875 533.320703125 437.325 526.875 434.720703125 526.4337890625 432 526.1 389.1 520.85 360.25 550.1 359.5693359375 550.7892578125 358.9 551.5 358.5517578125 551.9 358.2 552.3"/>
</g>

<g>
<path stroke="#666666" stroke-width="2" stroke-linejoin="round" stroke-linecap="round" fill="none" d="
M 363.575 555.825
Q 363.4791015625 555.9486328125 363.375 556.075
M 497.3 631.6
Q 500.9 595.05 485.05 564.15 471.0611328125 538.5037109375 437.475 532.325
M 338.05 637.6
L 505.25 636.9"/>
</g>

<g>
<path stroke="#333333" stroke-width="3" stroke-linejoin="round" stroke-linecap="round" fill="none" d="
M 376.05 553.05
L 383.05 561.6
M 363.05 567.1
L 372.05 573.1
M 393.55 542.55
L 397.1 553.05
M 354.05 587.6
L 366.05 588.6
M 471.1 587.1
L 482.6 586.1
M 457.6 562.1
L 467.1 554.05
M 467.1 574.1
L 477.6 569.1
M 411.1 536.55
L 412.6 549.05
M 429.1 536.55
L 427.6 548.05
M 443.6 553.05
L 449.1 542.05
M 353.05 624.1
L 366.05 624.1
M 353.55 605.6
L 365.55 605.6
M 474.1 623.1
L 486.1 623.1
M 473.6 605.6
L 486.1 605.6"/>
</g>

<g>
<path stroke="#999999" stroke-width="2" stroke-linejoin="round" stroke-linecap="round" fill="none" d="
M 437.475 532.325
Q 434.320703125 531.75703125 431 531.35 392.2 526.6 366.1 553.05 364.7990234375 554.3689453125 363.575 555.825"/>
</g>

<g>
<path stroke="#CACACA" stroke-width="2" stroke-linejoin="round" stroke-linecap="round" fill="none" d="
M 505.25 636.9
Q 509.25 596.5 491.7 562.35"/>
</g>

<g>
<path stroke="#979798" stroke-width="2" stroke-linejoin="round" stroke-linecap="round" fill="none" d="
M 358.2 552.3
Q 336.280859375 577.2078125 338.05 637.6"/>
</g>

<g>
<path stroke="#E1E1DF" stroke-width="2" stroke-linejoin="round" stroke-linecap="round" fill="none" d="
M 363.375 556.075
Q 344.4572265625 578.8130859375 346 632.25"/>
</g>
</g>

<g>
<g>
<path stroke="#E1E1DF" stroke-width="2" stroke-linejoin="round" stroke-linecap="round" fill="none" d="
M 346 632.25
L 444.45 631.825
M 445.7 631.825
L 497.3 631.6"/>
</g>
</g>

<g>
<g>
<g>
<path fill="#FEE684" stroke="none" d="
M 406.2 627.95
Q 406.2 629.6 406.5 631.15
L 439.8 631
Q 440.05 629.5 440.05 627.95 440.05 620.95 435.1 615.95 430.35 611.2 423.7 611 423.4 611 423.15 611 416.1 611 411.15 615.95 406.2 620.95 406.2 627.95 Z"/>
</g>
</g>

<g>
<path stroke="#CC9900" stroke-width="1" stroke-linejoin="round" stroke-linecap="round" fill="none" d="
M 406.5 631.15
Q 406.2 629.6 406.2 627.95 406.2 620.95 411.15 615.95 416.1 611 423.15 611 423.4 611 423.7 611 430.35 611.2 435.1 615.95 440.05 620.95 440.05 627.95 440.05 629.5 439.8 631"/>
</g>
</g>
</g>

<g id="dial">
<g transform="matrix( 1, 0, 0, 1, 0,3) ">
<g>
<path stroke="#6600FF" stroke-width="4" stroke-linejoin="round" stroke-linecap="round" fill="none" d="
M 426.6 567.55
L 434.1 562.55 439.1 570.55
M 424.55 607.15
L 434.1 562.55"/>
</g>
</g>
</g>
</svg>
