
<svg xmlns="http://www.w3.org/2000/svg" version="1.1" xmlns:xlink="http://www.w3.org/1999/xlink" preserveAspectRatio="none" x="0px" y="0px" width="800px" height="800px" viewBox="0 0 800 800">
<defs>
<radialGradient id="Gradient_1" gradientUnits="userSpaceOnUse" cx="0" cy="0" r="62.049999999999955" fx="0" fy="0" gradientTransform="matrix( 1.0000000000000007, 0, 0, 1.0000000000000007, 594.15,659.1) " spreadMethod="pad">
<stop  offset="0.7843137254901961%" stop-color="#B096FF"/>

<stop  offset="100%" stop-color="#6633FF"/>
</radialGradient>

<radialGradient id="Gradient_2" gradientUnits="userSpaceOnUse" cx="0" cy="0" r="109.39999999999998" fx="0" fy="0" gradientTransform="matrix( 1.0000000000000002, 0, 0, 1.0000000000000002, 516.15,620.15) " spreadMethod="pad">
<stop  offset="0.39215686274509803%" stop-color="#333333"/>

<stop  offset="30.980392156862745%" stop-color="#666666"/>

<stop  offset="69.01960784313725%" stop-color="#FFFFFF"/>

<stop  offset="97.6470588235294%" stop-color="#999999"/>
</radialGradient>

<radialGradient id="Gradient_3" gradientUnits="userSpaceOnUse" cx="0" cy="0" r="36.14999999999998" fx="0" fy="0" gradientTransform="matrix( 1.0000000000000007, 0, 0, 1.0000000000000007, 491.15,512.1) " spreadMethod="pad">
<stop  offset="0%" stop-color="#5A5A5A"/>

<stop  offset="100%" stop-color="#383838"/>
</radialGradient>

<radialGradient id="Gradient_4" gradientUnits="userSpaceOnUse" cx="0" cy="0" r="63.099999999999994" fx="0" fy="0" gradientTransform="matrix( 1.0000000000000002, 0, 0, 1.0000000000000002, 204.1,659.1) " spreadMethod="pad">
<stop  offset="0.7843137254901961%" stop-color="#B096FF"/>

<stop  offset="100%" stop-color="#6633FF"/>
</radialGradient>

<radialGradient id="Gradient_5" gradientUnits="userSpaceOnUse" cx="0" cy="0" r="109.60000000000002" fx="0" fy="0" gradientTransform="matrix( 0.9999999999999999, 0, 0, 0.9999999999999999, 284.1,623.15) " spreadMethod="pad">
<stop  offset="0.39215686274509803%" stop-color="#333333"/>

<stop  offset="30.980392156862745%" stop-color="#666666"/>

<stop  offset="69.01960784313725%" stop-color="#FFFFFF"/>

<stop  offset="97.6470588235294%" stop-color="#999999"/>
</radialGradient>

<radialGradient id="Gradient_6" gradientUnits="userSpaceOnUse" cx="0" cy="0" r="36.10000000000002" fx="0" fy="0" gradientTransform="matrix( 0.9999999999999993, 0, 0, 0.9999999999999993, 303.1,513.1) " spreadMethod="pad">
<stop  offset="0%" stop-color="#5A5A5A"/>

<stop  offset="100%" stop-color="#383838"/>
</radialGradient>

<radialGradient id="Gradient_7" gradientUnits="userSpaceOnUse" cx="0" cy="0" r="133.89999999999998" fx="0" fy="0" gradientTransform="matrix( 1.0000000000000002, 0, 0, 1.0000000000000002, 402.1,602.15) " spreadMethod="pad">
<stop  offset="49.80392156862745%" stop-color="#CCCCCC"/>

<stop  offset="100%" stop-color="#999999"/>
</radialGradient>

<radialGradient id="Gradient_8" gradientUnits="userSpaceOnUse" cx="0" cy="0" r="93.10000000000002" fx="0" fy="0" gradientTransform="matrix( 0.9999999999999998, 0, 0, 0.9999999999999998, 403.1,528.1) " spreadMethod="pad">
<stop  offset="0%" stop-color="#FFFFFF"/>

<stop  offset="100%" stop-color="#999999"/>
</radialGradient>

<radialGradient id="Gradient_9" gradientUnits="userSpaceOnUse" cx="0" cy="0" r="369.05000000000007" fx="0" fy="0" gradientTransform="matrix( 0.9999999999999999, 0, 0, 0.9999999999999999, 528.15,230.05) " spreadMethod="pad">
<stop  offset="0%" stop-color="#FFFFFF"/>

<stop  offset="100%" stop-color="#999999"/>
</radialGradient>

<radialGradient id="Gradient_10" gradientUnits="userSpaceOnUse" cx="0" cy="0" r="106.25" fx="0" fy="0" gradientTransform="matrix( 1, 0, 0, 1, 186.05,350.1) " spreadMethod="pad">
<stop  offset="0%" stop-color="#B7AFAF"/>

<stop  offset="100%" stop-color="#CCCCCC"/>
</radialGradient>

<radialGradient id="Gradient_11" gradientUnits="userSpaceOnUse" cx="0" cy="0" r="101.55000000000007" fx="0" fy="0" gradientTransform="matrix( 0.9999999999999994, 0, 0, 0.9999999999999994, 620.15,282.1) " spreadMethod="pad">
<stop  offset="0%" stop-color="#FFFFFF"/>

<stop  offset="100%" stop-color="#999999"/>
</radialGradient>

<radialGradient id="Gradient_12" gradientUnits="userSpaceOnUse" cx="0" cy="0" r="90.75" fx="0" fy="0" gradientTransform="matrix( 1, 0, 0, 1, 414.1,156.05) " spreadMethod="pad">
<stop  offset="0%" stop-color="#FFFFFF"/>

<stop  offset="100%" stop-color="#999999"/>
</radialGradient>

<radialGradient id="Gradient_13" gradientUnits="userSpaceOnUse" cx="0" cy="0" r="101.10000000000002" fx="0" fy="0" gradientTransform="matrix( 0.9999999999999998, 0, 0, 0.9999999999999998, 399.1,198.5) " spreadMethod="pad">
<stop  offset="0.7843137254901961%" stop-color="#333333"/>

<stop  offset="100%" stop-color="#000000"/>
</radialGradient>

<radialGradient id="Gradient_14" gradientUnits="userSpaceOnUse" cx="0" cy="0" r="57.69999999999999" fx="0" fy="0" gradientTransform="matrix( 1.0000000000000002, 0, 0, 1.0000000000000002, 396.1,101.05) " spreadMethod="pad">
<stop  offset="0%" stop-color="#5A5A5A"/>

<stop  offset="100%" stop-color="#383838"/>
</radialGradient>

<radialGradient id="Gradient_15" gradientUnits="userSpaceOnUse" cx="0" cy="0" r="19.475000000000023" fx="0" fy="0" gradientTransform="matrix( 0.9999999999999989, 0, 0, 0.9999999999999989, 344.4,106.35) " spreadMethod="pad">
<stop  offset="0.7843137254901961%" stop-color="#B096FF"/>

<stop  offset="100%" stop-color="#6633FF"/>
</radialGradient>
</defs>

<g id="r_arm">
<g>
<g>
<g>
<path fill="#242422" stroke="none" d="
M 616.45 649.65
Q 616.5072265625 649.737109375 616.55 649.8 625.5279296875 642.6865234375 624.6 634.65 618.94296875 618.385546875 605.6 613.65 577.85 602.7986328125 550.1 613.65 532.269921875 621.38984375 527.6 636.65 531.8970703125 650.446875 541.95 654.65 543.5525390625 651.2447265625 545.8 648.1 537.955859375 643.525390625 539.65 635.1 540.6794921875 625.051953125 553.75 619.3 570.7076171875 611.9083984375 587.6 614.7 604.4919921875 617.535546875 612.3 627.5 620.1640625 637.459375 612.25 644.3 614.6146484375 646.8806640625 616.45 649.65 Z"/>

<path fill="url(#Gradient_1)" stroke="none" d="
M 610.65 642.6
Q 610.5373046875 642.4873046875 610.4 642.35 605.065625 637.0859375 598.7 634.05 594.45 632.05 589.75 631.05 585.35 630.15 580.6 630.15 563 630.15 550.55 642.6 548.4220703125 644.7279296875 546.65 647 546.2232421875 647.551953125 545.8 648.1 543.5525390625 651.2447265625 541.95 654.65 538.1 662.8546875 538.1 672.65 538.1 690.25 550.55 702.7 563 715.15 580.6 715.15 598.2 715.15 610.65 702.7 623.1 690.25 623.1 672.65 623.1 659.88671875 616.55 649.8 616.5072265625 649.737109375 616.45 649.65 614.6146484375 646.8806640625 612.25 644.3 611.4955078125 643.4455078125 610.65 642.6 Z"/>

<path fill="#0B0805" stroke="none" d="
M 610.4 642.35
Q 610.5373046875 642.4873046875 610.65 642.6 611.4955078125 643.4455078125 612.25 644.3 620.1640625 637.459375 612.3 627.5 604.4919921875 617.535546875 587.6 614.7 570.7076171875 611.9083984375 553.75 619.3 540.6794921875 625.051953125 539.65 635.1 537.955859375 643.525390625 545.8 648.1 546.2232421875 647.551953125 546.65 647 548.4220703125 644.7279296875 550.55 642.6 563 630.15 580.6 630.15 585.35 630.15 589.75 631.05 594.45 632.05 598.7 634.05 605.065625 637.0859375 610.4 642.35 Z"/>

<path fill="url(#Gradient_2)" stroke="none" d="
M 512.65 553.65
Q 512.617578125 553.8998046875 512.6 554.15 509.2744140625 598.1064453125 527.6 636.65 532.269921875 621.38984375 550.1 613.65 577.85 602.7986328125 605.6 613.65 618.94296875 618.385546875 624.6 634.65 625.1849609375 622.4 618.1 610.15 592.9193359375 556.6958984375 538.6 540.15 514.153515625 537.199609375 512.65 553.65 Z"/>

<path fill="#0D0806" stroke="none" d="
M 500.1 518.1
Q 490.799609375 525.075 494.1 535.65
L 504 545.55 512.65 553.65
Q 514.153515625 537.199609375 538.6 540.15
L 518 520.55
Q 509.922265625 514.1666015625 500.1 518.1 Z"/>

<path fill="url(#Gradient_3)" stroke="none" d="
M 518 520.55
L 518 520.5
Q 517.35859375 511.20859375 510.6 504.45 503.1 496.95 492.45 496.95 481.8 496.95 474.3 504.45 466.8 511.95 466.8 522.6 466.8 533.25 474.3 540.75 481.8 548.25 492.45 548.25 498.8013671875 548.25 504 545.55
L 494.1 535.65
Q 490.799609375 525.075 500.1 518.1 509.922265625 514.1666015625 518 520.55 Z"/>
</g>
</g>
</g>
</g>

<g id="l_arm">
<g>
<g>
<g>
<path fill="url(#Gradient_4)" stroke="none" d="
M 257.75 654.65
Q 257.701953125 654.5490234375 257.65 654.45 256.0705078125 651.163671875 253.85 648.1 253.475 647.55390625 253.05 647 251.3 644.75 249.15 642.6 236.7 630.15 219.1 630.15 214.35 630.15 209.95 631.05 205.25 632.05 201 634.05 194.65 637.1 189.25 642.4 189.15 642.5 189.05 642.6 188.6986328125 642.9513671875 188.35 643.3 185.7880859375 645.979296875 183.75 648.85 183.51015625 649.25703125 183.25 649.65 176.6 659.8 176.6 672.65 176.6 690.25 189.05 702.7 201.5 715.15 219.1 715.15 236.7 715.15 249.15 702.7 261.6 690.25 261.6 672.65 261.6 662.85 257.75 654.65 Z"/>

<path fill="#0D0806" stroke="none" d="
M 261.55 638.85
Q 263.8734375 632.298828125 252.55 622.85 229.923046875 609.859375 206.75 616.35 189.0734375 621.8994140625 184 632.85 182.688671875 640.565234375 188.35 643.3 188.6986328125 642.9513671875 189.05 642.6 189.15 642.5 189.25 642.4 194.65 637.1 201 634.05 205.25 632.05 209.95 631.05 214.35 630.15 219.1 630.15 236.7 630.15 249.15 642.6 251.3 644.75 253.05 647 253.475 647.55390625 253.85 648.1 261.0265625 644.434375 261.55 638.85
M 303.15 538.15
Q 304.36953125 536.89765625 305.6 535.65 308.9 525.1 299.6 518.1 289.8 514.15 281.65 520.55
L 261.1 540.15
Q 285.9 537.15 287.1 554.15 287.1177734375 554.38203125 287.1 554.6
L 295.8 545.7
Q 295.737890625 545.6443359375 295.65 545.6
L 303.15 538.15 Z"/>

<path fill="#242422" stroke="none" d="
M 272.1 636.65
Q 267.45 621.4 249.6 613.65 221.85 602.8 194.1 613.65 180.75 618.4 175.1 634.65 177.294921875 646.476171875 183.75 648.85 185.7880859375 645.979296875 188.35 643.3 182.688671875 640.565234375 184 632.85 189.0734375 621.8994140625 206.75 616.35 229.923046875 609.859375 252.55 622.85 263.8734375 632.298828125 261.55 638.85 261.0265625 644.434375 253.85 648.1 256.0705078125 651.163671875 257.65 654.45 269.7875 648.497265625 272.1 636.65 Z"/>

<path fill="url(#Gradient_5)" stroke="none" d="
M 287.1 554.6
Q 287.1177734375 554.38203125 287.1 554.15 285.9 537.15 261.1 540.15 206.8 556.7 181.6 610.15 174.5 622.4 175.1 634.65 180.75 618.4 194.1 613.65 221.85 602.8 249.6 613.65 267.45 621.4 272.1 636.65 290.353125 598.303515625 287.1 554.6 Z"/>

<path fill="url(#Gradient_6)" stroke="none" d="
M 307.25 496.95
Q 296.6 496.95 289.1 504.45 282.35 511.2 281.65 520.55 289.8 514.15 299.6 518.1 308.9 525.1 305.6 535.65 304.36953125 536.89765625 303.15 538.15
L 295.65 545.6
Q 295.737890625 545.6443359375 295.8 545.7 301.0064453125 548.25 307.25 548.25 317.9 548.25 325.4 540.75 332.9 533.25 332.9 522.6 332.9 511.95 325.4 504.45 317.9 496.95 307.25 496.95 Z"/>
</g>
</g>
</g>
</g>

<g id="body">
<g>
<g>
<g>
<path fill="#262624" stroke="none" d="
M 400.3 638.1
L 400.3 740.1
Q 412.5578125 739.4775390625 421.95 729.75
L 419.2 645.85
Q 410.81484375 638.633984375 400.3 638.1
M 396.65 638.1
Q 385.144140625 638.7828125 376.15 647.5
L 373.1 727.4
Q 383.0927734375 739.2314453125 396.5 740.05
L 396.65 638.1
M 360.95 677.85
Q 360.1 683.2380859375 360.1 689.1 360.1 697.2060546875 361.75 704.4 364.103515625 714.6359375 369.8 723
L 373.5 650.35
Q 372.401953125 651.608203125 371.35 653 363.21796875 663.8064453125 360.95 677.85
M 437.1 689.1
Q 437.1 684.0212890625 436.45 679.3 434.3865234375 664.36015625 425.8 653 424.266796875 650.9625 422.65 649.2
L 425.6 725.4
Q 425.7154296875 725.3123046875 425.8 725.2 432.8080078125 715.9283203125 435.45 704.25 437.1 697.133203125 437.1 689.1 Z"/>

<path fill="#191816" stroke="none" d="
M 376.15 647.5
Q 374.7935546875 648.8443359375 373.5 650.35
L 369.8 723
Q 370.546875 724.1326171875 371.35 725.2 372.2125 726.3412109375 373.1 727.4
L 376.15 647.5
M 360.95 677.85
L 342.1 676.15
Q 342.4587890625 700.7376953125 361.75 704.4 360.1 697.2060546875 360.1 689.1 360.1 683.2380859375 360.95 677.85
M 398.6 638.05
Q 397.6162109375 638.05 396.65 638.1
L 396.5 740.05
Q 397.53984375 740.15 398.6 740.15 399.4583984375 740.15 400.3 740.1
L 400.3 638.1
Q 399.4583984375 638.05 398.6 638.05
M 422.65 649.2
Q 420.9818359375 647.3919921875 419.2 645.85
L 421.95 729.75
Q 423.8484375 727.76796875 425.6 725.4
L 422.65 649.2
M 436.45 679.3
Q 437.1 684.0212890625 437.1 689.1 437.1 697.133203125 435.45 704.25 452.4521484375 698.37734375 454.35 677.4
L 436.45 679.3 Z"/>
</g>
</g>
</g>

<g>
<g>
<g>
<path fill="url(#Gradient_7)" stroke="none" d="
M 316.7 499.95
L 294.55 614.15
Q 294.512109375 660.833984375 352.05 680.65 400.075 695.1779296875 448.1 680.65 507.919140625 649.734765625 502.6 617.15
L 480.85 498.7
Q 479.8896484375 511.60546875 456.85 520.85 432.75 530.55 398.7 530.55 364.6 530.55 340.55 520.85 318.6662109375 512.069140625 316.7 499.95 Z"/>

<path fill="url(#Gradient_8)" stroke="none" d="
M 316.5 497.55
Q 316.5 498.7794921875 316.7 499.95 318.6662109375 512.069140625 340.55 520.85 364.6 530.55 398.7 530.55 432.75 530.55 456.85 520.85 479.8896484375 511.60546875 480.85 498.7 480.9 498.1234375 480.9 497.55 480.9 483.9 456.85 474.15 432.75 464.55 398.7 464.55 364.6 464.55 340.55 474.15 316.5 483.9 316.5 497.55
M 350.25 477.7
Q 370.4 469.85 398.95 469.85 427.5 469.85 447.65 477.7 467.8 485.6 467.8 496.75 467.8 507.85 447.65 515.75 427.5 523.65 398.95 523.65 370.4 523.65 350.25 515.75 330.1 507.85 330.1 496.75 330.1 485.6 350.25 477.7 Z"/>

<path fill="#5D5D5B" stroke="none" d="
M 398.95 469.85
Q 370.4 469.85 350.25 477.7 330.1 485.6 330.1 496.75 330.1 507.85 350.25 515.75 370.4 523.65 398.95 523.65 427.5 523.65 447.65 515.75 467.8 507.85 467.8 496.75 467.8 485.6 447.65 477.7 427.5 469.85 398.95 469.85
M 353.8 478.15
Q 372.55 471.05 399.1 471.05 425.65 471.05 444.4 478.15 463.15 485.3 463.15 495.35 463.15 505.4 444.4 512.5 425.65 519.65 399.1 519.65 372.55 519.65 353.8 512.5 335.05 505.4 335.05 495.35 335.05 485.3 353.8 478.15 Z"/>

<path fill="#0D0806" stroke="none" d="
M 399.1 471.05
Q 372.55 471.05 353.8 478.15 335.05 485.3 335.05 495.35 335.05 505.4 353.8 512.5 372.55 519.65 399.1 519.65 425.65 519.65 444.4 512.5 463.15 505.4 463.15 495.35 463.15 485.3 444.4 478.15 425.65 471.05 399.1 471.05 Z"/>
</g>
</g>
</g>

<g>
<g>
<path stroke="#666666" stroke-width="5" stroke-linejoin="round" stroke-linecap="round" fill="none" d="
M 337.05 542.15
Q 404.55 567.55 464.1 539.15
M 329.6 578.65
Q 406.1 607.05 469.65 577.65
M 332.6 560.65
Q 405.1 587.05 466.65 558.65"/>
</g>
</g>
</g>

<g id="head">
<g>
<g>
<g>
<path fill="#666666" stroke="none" d="
M 368.1 495.8
Q 380.8916015625 506.882421875 398.8 507 416.708203125 507.1173828125 429.25 495.9 436.4783203125 489.4837890625 439.55 482.2 400.62421875 488.260546875 357.75 482.55 360.9162109375 489.6111328125 368.1 495.8 Z"/>

<path fill="url(#Gradient_9)" stroke="none" d="
M 617.45 314.6
Q 617.45 243.95 552.95 194 488.45 144.1 397.25 144.1 306.05 144.1 241.5 194 177.05 243.95 177.05 314.6 177.05 385.2 241.5 435.15 268.4255859375 455.9646484375 300 468.1 318.728125 475.304296875 339.1 479.45 348.2716796875 481.3052734375 357.75 482.55 400.62421875 488.260546875 439.55 482.2
L 439.55 482.15
Q 503.9548828125 473.0546875 552.95 435.15 617.45 385.2 617.45 314.6 Z"/>
</g>
</g>
</g>
</g>

<g id="face">
<g>
<g>
<g>
<path fill="#333333" stroke="none" d="
M 556.25 345.7
Q 556.25 301.9 509.6 271 462.95 240.05 397 240.05 331 240.05 284.4 271 282.5 272.25 280.75 273.5 237.75 303.65 237.75 345.7 237.75 389.5 284.4 420.4 331 451.35 397 451.35 397.05 451.35 397.15 451.35
L 397.2 451.35
Q 463 451.3 509.6 420.4 556.25 389.5 556.25 345.7 Z"/>
</g>
</g>

<g>
<path stroke="#333333" stroke-width="4" stroke-linejoin="round" stroke-linecap="round" fill="none" d="
M 556.25 345.7
Q 556.25 389.5 509.6 420.4 463 451.3 397.2 451.35
L 397.15 451.35
Q 397.05 451.35 397 451.35 331 451.35 284.4 420.4 237.75 389.5 237.75 345.7 237.75 303.65 280.75 273.5 282.5 272.25 284.4 271 331 240.05 397 240.05 462.95 240.05 509.6 271 556.25 301.9 556.25 345.7 Z"/>
</g>
</g>
</g>

<g id="ears">
<g>
<g>
<g>
<path fill="url(#Gradient_10)" stroke="none" d="
M 185.9 244.95
Q 185.8517578125 244.95 185.8 244.95 175.1654296875 245.03984375 167.55 264.85 160 284.75 160 312.85 160 341 167.55 360.9 173.8837890625 377.3763671875 182.3 380.2 184.0591796875 380.8 185.9 380.8 196.65 380.8 204.25 360.9 211.85 341 211.85 312.85 211.85 284.75 204.25 264.85 196.65 244.95 185.9 244.95 Z"/>

<path fill="#5E5E5C" stroke="none" d="
M 185.8 244.95
Q 185.8517578125 244.95 185.9 244.95 196.65 244.95 204.25 264.85 211.85 284.75 211.85 312.85 211.85 341 204.25 360.9 196.65 380.8 185.9 380.8 184.0591796875 380.8 182.3 380.2 187.63046875 387.95 194.05 387.95 204.8 387.95 212.4 366.45 220 345 220 314.6 220 284.3 212.4 262.85 204.8 241.35 194.05 241.35 189.6712890625 241.35 185.8 244.95
M 611.15 246.95
Q 612.5818359375 246.95 613.95 247.3 608.8630859375 240.35 602.75 240.35 592.05 240.35 584.4 261.85 576.85 283.3 576.85 313.65 576.85 344 584.4 365.45 592.05 386.95 602.75 386.95 607.4779296875 386.95 611.6 382.8 611.373828125 382.8 611.15 382.8 600.45 382.8 592.8 362.9 585.25 343 585.25 314.85 585.25 286.75 592.8 266.85 600.45 246.95 611.15 246.95 Z"/>

<path fill="url(#Gradient_11)" stroke="none" d="
M 613.95 247.3
Q 612.5818359375 246.95 611.15 246.95 600.45 246.95 592.8 266.85 585.25 286.75 585.25 314.85 585.25 343 592.8 362.9 600.45 382.8 611.15 382.8 611.373828125 382.8 611.6 382.8 622.058203125 382.385546875 629.5 362.9 637.1 343 637.1 314.85 637.1 286.75 629.5 266.85 622.9123046875 249.6005859375 613.95 247.3 Z"/>

<path fill="url(#Gradient_12)" stroke="none" d="
M 351.95 151.35
Q 349.2654296875 152.271484375 346.7 153.3 330.35 159.95 326.5 168.7 325.45 170.95 325.35 173.45 325.373828125 173.7716796875 325.4 174.1 326.7611328125 182.4298828125 346.7 188.45 358.636328125 192.0671875 373.25 193.7
L 394.5 194.9
Q 396.4466796875 194.95 398.4 194.95 400.356640625 194.95 402.25 194.9
L 423.55 193.7
Q 438.2138671875 192.0669921875 450.15 188.45 469.8716796875 182.46640625 471.4 174.2 471.46796875 173.823046875 471.5 173.45 471.35 170.95 470.35 168.7 466.5 159.95 450.15 153.3 448.48984375 152.634375 446.75 152 426.355078125 144.7 398.4 144.7 371.7677734375 144.7 351.95 151.35 Z"/>

<path fill="url(#Gradient_13)" stroke="none" d="
M 346.7 153.3
Q 349.2654296875 152.271484375 351.95 151.35 339.875 153.1533203125 329.4 156 301.3 163.7 301.3 174.55 301.3 185.4 329.4 193.05 357.55 200.75 397.3 200.75 437.05 200.75 465.15 193.05 493.25 185.4 493.25 174.55 493.25 163.7 465.15 156 456.513671875 153.648828125 446.75 152 448.48984375 152.634375 450.15 153.3 466.5 159.95 470.35 168.7 471.35 170.95 471.5 173.45 471.46796875 173.823046875 471.4 174.2 471.5 174.7392578125 471.5 175.3 471.5 175.55 471.5 175.85 470.75 183.6 450.15 189.15 438.21796875 192.3486328125 423.55 193.7
L 402.25 194.9
Q 400.356640625 194.95 398.4 194.95 396.4466796875 194.95 394.5 194.9
L 373.25 193.7
Q 358.63203125 192.3486328125 346.7 189.15 326 183.6 325.35 175.85 325.3 175.55 325.3 175.3 325.3 174.6873046875 325.4 174.1 325.373828125 173.7716796875 325.35 173.45 325.45 170.95 326.5 168.7 330.35 159.95 346.7 153.3 Z"/>
</g>
</g>
</g>
</g>

<g id="needle">
<g>
<g>
<g>
<path fill="url(#Gradient_14)" stroke="none" d="
M 402.25 84.25
L 394.25 83.75 387.2 155.8
Q 398.25 160.85 409.25 156.35
L 402.25 84.25 Z"/>
</g>
</g>
</g>

<g transform="matrix( 1.63641357421875, 0, 0, 1.63641357421875, -165.95,-116.2) ">
<g>
<g>
<path fill="url(#Gradient_15)" stroke="none" d="
M 344.7 87.3
Q 336.7 87.3 331 92.95 325.35 98.65 325.35 106.65 325.35 114.65 331 120.3 336.7 126 344.7 126 352.7 126 358.35 120.3 364.05 114.65 364.05 106.65 364.05 98.65 358.35 92.95 352.7 87.3 344.7 87.3 Z"/>
</g>
</g>

<g transform="matrix( 0.611083984375, 0, 0, 0.611083984375, 101.4,71) ">
<path stroke="#333334" stroke-width="3" stroke-linejoin="round" stroke-linecap="round" fill="none" d="
M 429.786361694336 58.32350769042971
Q 429.786361694336 71.41481628417971 420.45880432128916 80.66055297851561 411.2130676269531 89.9881103515625 398.1217590332031 89.9881103515625 385.0304504394531 89.9881103515625 375.70289306640626 80.66055297851561 366.4571563720704 71.41481628417971 366.4571563720704 58.32350769042971 366.4571563720704 45.23219909667971 375.70289306640626 35.90464172363282 385.0304504394531 26.65890502929686 398.1217590332031 26.65890502929686 411.2130676269531 26.65890502929686 420.45880432128916 35.90464172363282 429.786361694336 45.23219909667971 429.786361694336 58.32350769042971 Z"/>
</g>
</g>
</g>

<g id="switches">
<g>
<g>
<g>
<path fill="#7649FE" stroke="none" d="
M 439.25 584.8
Q 438.05 585.2 437.55 586.7 437.05 588.15 437.65 589.65 438.2 591.25 439.55 591.95 440.85 592.75 442.1 592.25 452.7 591.25 461.15 585.65 462.6 584.55 463 583.05 463.5 581.65 462.95 580.1 462.35 578.55 461 577.75 459.75 577 456.55 578.05
L 439.25 584.8
M 400.9 574.25
Q 400.9 576 402.4 576.9 403.85 577.9 405.9 577.6 421.85 577.75 437.2 573 439.85 571.95 441.25 570.45 442.75 569.05 442.75 567.35 442.8 565.7 441.25 564.7 439.85 563.75 438 564.55
L 405.95 569.35
Q 403.85 569.7 402.4 571.15 400.9 572.55 400.9 574.25
M 348.2 569.7
Q 348.95 571.05 350.25 571.3 359.9 575.8 370.05 575.35 371.85 575.1 372.95 574.05 374.1 573.1 374.4 571.45 374.7 569.85 373.95 568.5 373.25 567.2 369.95 566.45
L 351.65 563.4
Q 350.35 563.15 349.2 564.15 348.05 565.15 347.75 566.75 347.45 568.4 348.2 569.7
M 360.15 590.15
Q 359.85 591.9 361.75 593.2 363.5 594.5 366.25 594.7 389.630859375 601.7708984375 409.05 597.95 412.8 597.55 414.95 596.45 417.2 595.4 417.5 593.75 417.85 592.15 416 590.8 414.25 589.5 411.7 589.85 388.8107421875 592.082421875 367.85 586.6 365 586.45 362.8 587.5 360.45 588.5 360.15 590.15 Z"/>
</g>
</g>
</g>
</g>
</svg>
