<svg class="devie" xmlns="http://www.w3.org/2000/svg" version="1.1" xmlns:xlink="http://www.w3.org/1999/xlink" preserveAspectRatio="none" x="0px" y="0px" width="800px" height="800px" viewBox="0 0 800 800">
<defs>
<radialGradient id="Gradient_1" gradientUnits="userSpaceOnUse" cx="0" cy="0" r="61.60000000000002" fx="0" fy="0" gradientTransform="matrix( 0.9999999999999997, 0, 0, 0.9999999999999997, 639.8,554.35) " spreadMethod="pad">
<stop  offset="0%" stop-color="#DFDFDF"/>

<stop  offset="100%" stop-color="#383838"/>
</radialGradient>

<radialGradient id="Gradient_2" gradientUnits="userSpaceOnUse" cx="0" cy="0" r="0" fx="0" fy="0" gradientTransform="matrix( NaN, NaN, NaN, NaN, 0,0) " spreadMethod="pad">
<stop  offset="0%" stop-color="#B7AFAF"/>

<stop  offset="100%" stop-color="#D3CFCE"/>
</radialGradient>

<radialGradient id="Gradient_3" gradientUnits="userSpaceOnUse" cx="0" cy="0" r="74" fx="0" fy="0" gradientTransform="matrix( 1, 0, 0, 1, 174.9,660.05) " spreadMethod="pad">
<stop  offset="0%" stop-color="#DFDFDF"/>

<stop  offset="100%" stop-color="#383838"/>
</radialGradient>

<radialGradient id="Gradient_4" gradientUnits="userSpaceOnUse" cx="0" cy="0" r="243.39999999999998" fx="0" fy="0" gradientTransform="matrix( 1, 0, 0, 1, 297.15,620.4) " spreadMethod="pad">
<stop  offset="0%" stop-color="#B7AFAF"/>

<stop  offset="100%" stop-color="#EAEAEA"/>
</radialGradient>

<radialGradient id="Gradient_5" gradientUnits="userSpaceOnUse" cx="0" cy="0" r="159.39999999999998" fx="0" fy="0" gradientTransform="matrix( 1.0000000000000002, 0, 0, 1.0000000000000002, 358.9,663.05) " spreadMethod="pad">
<stop  offset="0%" stop-color="#B7AFAF"/>

<stop  offset="100%" stop-color="#D3CFCE"/>
</radialGradient>

<radialGradient id="Gradient_6" gradientUnits="userSpaceOnUse" cx="0" cy="0" r="19.51249999999999" fx="0" fy="0" gradientTransform="matrix( 1.0000000000000007, 0, 0, 1.0000000000000007, 344.55,106.5) " spreadMethod="pad">
<stop  offset="0.7843137254901961%" stop-color="#B096FF"/>

<stop  offset="100%" stop-color="#6633FF"/>
</radialGradient>

<radialGradient id="Gradient_7" gradientUnits="userSpaceOnUse" cx="0" cy="0" r="19.850000000000023" fx="0" fy="0" gradientTransform="matrix( 0.9999999999999989, 0, 0, 0.9999999999999989, 472.1,113.25) " spreadMethod="pad">
<stop  offset="0.7843137254901961%" stop-color="#B096FF"/>

<stop  offset="100%" stop-color="#6633FF"/>
</radialGradient>

<radialGradient id="Gradient_8" gradientUnits="userSpaceOnUse" cx="0" cy="0" r="193.70000000000005" fx="0" fy="0" gradientTransform="matrix( 0.9999999999999999, 0, 0, 0.9999999999999999, 416.1,225.35) " spreadMethod="pad">
<stop  offset="0%" stop-color="#B7AFAF"/>

<stop  offset="100%" stop-color="#D3CFCE"/>
</radialGradient>

<radialGradient id="Gradient_9" gradientUnits="userSpaceOnUse" cx="0" cy="0" r="47.35000000000002" fx="0" fy="0" gradientTransform="matrix( 0.9999999999999996, 0, 0, 0.9999999999999996, 647.55,420.65) " spreadMethod="pad">
<stop  offset="0%" stop-color="#5A5A5A"/>

<stop  offset="100%" stop-color="#292929"/>
</radialGradient>

<radialGradient id="Gradient_10" gradientUnits="userSpaceOnUse" cx="0" cy="0" r="91.25" fx="0" fy="0" gradientTransform="matrix( 1.0000000000000002, 0, 0, 1.0000000000000002, 563.2,499.4) " spreadMethod="pad">
<stop  offset="0%" stop-color="#B7AFAF"/>

<stop  offset="100%" stop-color="#D3CFCE"/>
</radialGradient>

<radialGradient id="Gradient_11" gradientUnits="userSpaceOnUse" cx="0" cy="0" r="47.249999999999986" fx="0" fy="0" gradientTransform="matrix( 1.0000000000000002, 0, 0, 1.0000000000000002, 120.45,400.55) " spreadMethod="pad">
<stop  offset="0%" stop-color="#5A5A5A"/>

<stop  offset="100%" stop-color="#292929"/>
</radialGradient>

<radialGradient id="Gradient_12" gradientUnits="userSpaceOnUse" cx="0" cy="0" r="94.05000000000001" fx="0" fy="0" gradientTransform="matrix( 0.9999999999999999, 0, 0, 0.9999999999999999, 146.55,379.5) " spreadMethod="pad">
<stop  offset="0%" stop-color="#DFDFDF"/>

<stop  offset="100%" stop-color="#383838"/>
</radialGradient>

<radialGradient id="Gradient_13" gradientUnits="userSpaceOnUse" cx="0" cy="0" r="87.75" fx="0" fy="0" gradientTransform="matrix( 1.0000000000000002, 0, 0, 1.0000000000000002, 135.55,382.5) " spreadMethod="pad">
<stop  offset="0%" stop-color="#5A5A5A"/>

<stop  offset="100%" stop-color="#383838"/>
</radialGradient>

<radialGradient id="Gradient_14" gradientUnits="userSpaceOnUse" cx="0" cy="0" r="109.64999999999998" fx="0" fy="0" gradientTransform="matrix( 1.0000000000000002, 0, 0, 1.0000000000000002, 622.4,465.8) " spreadMethod="pad">
<stop  offset="0%" stop-color="#B7AFAF"/>

<stop  offset="100%" stop-color="#EAEAEA"/>
</radialGradient>

<radialGradient id="Gradient_15" gradientUnits="userSpaceOnUse" cx="0" cy="0" r="91.60000000000002" fx="0" fy="0" gradientTransform="matrix( 0.9999999999999998, 0, 0, 0.9999999999999998, 621.45,400.55) " spreadMethod="pad">
<stop  offset="0%" stop-color="#DFDFDF"/>

<stop  offset="100%" stop-color="#383838"/>
</radialGradient>

<radialGradient id="Gradient_16" gradientUnits="userSpaceOnUse" cx="0" cy="0" r="254.85000000000002" fx="0" fy="0" gradientTransform="matrix( 0.9999999999999999, 0, 0, 0.9999999999999999, 577.75,490.4) " spreadMethod="pad">
<stop  offset="0%" stop-color="#B7AFAF"/>

<stop  offset="100%" stop-color="#D3CFCE"/>
</radialGradient>

<radialGradient id="Gradient_17" gradientUnits="userSpaceOnUse" cx="0" cy="0" r="375.00000000000006" fx="0" fy="0" gradientTransform="matrix( 0.9999999999999999, 0, 0, 0.9999999999999999, 429.7,218.8) " spreadMethod="pad">
<stop  offset="0%" stop-color="#DFDFDF"/>

<stop  offset="100%" stop-color="#383838"/>
</radialGradient>

<radialGradient id="Gradient_18" gradientUnits="userSpaceOnUse" cx="0" cy="0" r="164.60000000000002" fx="0" fy="0" gradientTransform="matrix( 0.9999999999999999, 0, 0, 0.9999999999999999, 531.05,364.4) " spreadMethod="pad">
<stop  offset="0%" stop-color="#B7AFAF"/>

<stop  offset="100%" stop-color="#EAEAEA"/>
</radialGradient>
</defs>

<g class="r_arm" id="r_arm">
<g>
<g>
<g>
<path fill="#333334" stroke="none" d="
M 517.85 559.05
Q 513.1728515625 572.3876953125 513.55 586.75 513.9779296875 601.11484375 517.75 614.9 530.6400390625 616.671484375 537.25 617.9 542.18671875 618.7990234375 543.6 619.4 544.1150390625 619.6033203125 544.6 619.8 562.5208984375 623.9283203125 572.7 623.8 537.35 595.2 559.5 557.2 556.2 555.8 552.95 553.75 548.85 551.5 544.7 548.15 542 546 519.35 537.1 522.53046875 545.7103515625 517.85 559.05
M 570.15 560.1
Q 564.95 559.5 559.5 557.2 537.35 595.2 572.7 623.8 585.05 623.75 596.25 620.5 566.5 597.35 570.15 560.1
M 589.5 555.7
Q 584.65 558.7 579.45 559.75 586.5 592.25 612.3 613.8 619.85 609.75 626.9 604.05 597.2 586.8 589.5 555.7
M 579.45 559.75
Q 574.85 560.65 570.15 560.1 566.5 597.35 596.25 620.5 604.6 618.05 612.3 613.8 586.5 592.25 579.45 559.75 Z"/>

<path fill="#CCCCCC" stroke="none" d="
M 647.2 535.95
L 628.3 539.75 647.1 565.6 660.95 555.5 647.2 535.95 Z"/>

<path fill="url(#Gradient_1)" stroke="none" d="
M 685.75 589.2
Q 699.1 574.75 685.7 537.5
L 660.95 555.5 647.1 565.6 628.3 539.75 663.65 511.15
Q 637.05 492.25 608.7 502.85 580.25 516.6 589.5 555.7 597.2 586.8 626.9 604.05 648.3 614.6 667.75 605.3 668.45 604.95 669.3 604.6 674.2 601.6 685.75 589.2 Z"/>

<path fill="#868686" stroke="none" d="
M 696.8 589.25
Q 701.35 586.95 706.1 577.4 711.1 554.4 701.3 533.15
L 685.7 537.5
Q 699.1 574.75 685.75 589.2 674.2 601.6 669.3 604.6 677.15 600.6 696.8 589.25 Z"/>

<path fill="#626869" stroke="none" d="
M 682.2 507
L 663.65 511.15 628.3 539.75 647.2 535.95 682.2 507 Z"/>

<path fill="url(#Gradient_2)" stroke="none" d="
M 663.65 511.15
L 682.2 507
Q 671.5 493.5 652.2 489 644.95 487.2 636.3 489
L 608.7 502.85
Q 637.05 492.25 663.65 511.15 Z"/>
</g>
</g>

<g>
<path stroke="#6C6F69" stroke-width="2" stroke-linejoin="round" stroke-linecap="round" fill="none" d="
M 663.65 511.15
L 628.3 539.75 647.2 535.95 682.2 507
M 685.7 537.5
L 660.95 555.5 647.1 565.6 628.3 539.75
M 701.3 533.15
L 685.7 537.5"/>
</g>

<g>
<path stroke="#333334" stroke-width="3" stroke-linejoin="round" stroke-linecap="round" fill="none" d="
M 626.9 604.05
Q 619.85 609.75 612.3 613.8 604.6 618.05 596.25 620.5 585.05 623.75 572.7 623.8 562.5208984375 623.9283203125 544.625 619.825 541.596484375 619.1169921875 538.35 618.3
M 519.35 537.1
Q 542 546 544.7 548.15 548.85 551.5 552.95 553.75 556.2 555.8 559.5 557.2 564.95 559.5 570.15 560.1 574.85 560.65 579.45 559.75 584.65 558.7 589.5 555.7"/>
</g>

<g>
<path stroke="#6C6F69" stroke-width="3" stroke-linejoin="round" stroke-linecap="round" fill="none" d="
M 538.35 618.3
Q 538.2833984375 618.1421875 537.25 617.9 530.6400390625 616.671484375 517.75 614.9 513.9779296875 601.11484375 513.575 586.75 513.1728515625 572.3876953125 517.85 559.05 522.53046875 545.7103515625 519.35 537.1"/>
</g>

<g>
<path stroke="#525252" stroke-width="3" stroke-linejoin="round" stroke-linecap="round" fill="none" d="
M 572.7 623.8
Q 537.35 595.2 559.5 557.2
M 612.3 613.8
Q 586.5 592.25 579.45 559.75
M 596.25 620.5
Q 566.5 597.35 570.15 560.1"/>
</g>
</g>

<g transform="matrix( -0.68182373046875, -0.9376678466796875, 0.9376678466796875, -0.68182373046875, 164.45,1176.35) ">
<g transform="matrix( -0.50726318359375, 0.697601318359375, -0.697601318359375, -0.50726318359375, 904.05,482) ">
<path stroke="#6C6F69" stroke-width="3" stroke-linejoin="round" stroke-linecap="round" fill="none" d="
M 626.8502548217773 604.0263412475585
Q 597.2017921447755 586.8102195739746 589.5116424560547 555.6339813232421"/>
</g>
</g>
</g>

<g class="l_arm" id="l_arm">
<g>
<g>
<g>
<path fill="#333334" stroke="none" d="
M 245.4 583.9
Q 248.292578125 583.0982421875 264.5 582.45
L 265.9 530.65
Q 243.303515625 528.8537109375 233.15 530.15 249.5 549.1486328125 245.4 583.9
M 233.15 530.15
Q 218.6369140625 532.0873046875 204.95 540.35 233.0953125 548.247265625 237.2 586.75 240.966796875 585.1744140625 245.4 583.9 249.5 549.1486328125 233.15 530.15
M 232.1 688.9
Q 237.0458984375 684.7564453125 240.15 677.85
L 244.5 651.55
Q 237.48984375 676.6552734375 210.85 685.7
L 204.35 700.75
Q 219.1951171875 700.1162109375 232.1 688.9
M 217.4 611.4
Q 217.7509765625 606.444140625 219.65 602.25 193.4 590.7615234375 165.2 597.75 164.2265625 605.1109375 164.7 612.9 191.7416015625 600.9685546875 217.4 611.4
M 219.65 602.25
Q 221.303125 598.623828125 224.1 595.55 199.976171875 574.1619140625 168.8 583.2 166.2423828125 590.2498046875 165.2 597.75 193.4 590.7615234375 219.65 602.25
M 192.8 549.15
Q 184.29765625 556.7521484375 178.35 565.1 216.2474609375 554.910546875 231.6 589.6 234.1841796875 588.0869140625 237.2 586.75 233.0953125 548.247265625 204.95 540.35 198.79609375 544.110546875 192.8 549.15
M 178.35 565.1
Q 172.205078125 573.75 168.8 583.2 199.976171875 574.1619140625 224.1 595.55 227.179296875 592.2646484375 231.6 589.6 216.2474609375 554.910546875 178.35 565.1 Z"/>

<path fill="#535D5E" stroke="none" d="
M 210.85 685.7
L 208.85 646.5 201.85 661.6 204.35 700.75 210.85 685.7 Z"/>

<path fill="#777778" stroke="none" d="
M 181.25 661.3
L 201.85 661.6 208.85 646.5 181.25 646.5 181.25 661.3 Z"/>

<path fill="#576068" stroke="none" d="
M 139.55 669.2
Q 138.869921875 673.484765625 143.1 681.65 156.5994140625 696.8013671875 176.45 700.75
L 181.25 687.7
Q 148.4966796875 678.165625 145.2 661.45 142.37578125 647.1884765625 142.8 642.2 141.60234375 649.712109375 139.55 669.2 Z"/>

<path fill="url(#Gradient_3)" stroke="none" d="
M 143.05 640.8
Q 142.9349609375 641.442578125 142.8 642.2 142.37578125 647.1884765625 145.2 661.45 148.4966796875 678.165625 181.25 687.7
L 181.25 661.3 181.25 646.5 208.85 646.5 210.85 685.7
Q 237.48984375 676.6552734375 244.5 651.55 249.3470703125 624.732421875 217.4 611.4 191.7416015625 600.9685546875 164.7 612.9 146.4390625 622.4845703125 143.05 640.8 Z"/>
</g>
</g>

<g>
<path stroke="#333334" stroke-width="3" stroke-linejoin="round" stroke-linecap="round" fill="none" d="
M 164.7 612.9
Q 164.2265625 605.1109375 165.225 597.75 166.2423828125 590.2498046875 168.8 583.2 172.205078125 573.75 178.35 565.1 184.29765625 556.7521484375 192.8 549.15 198.79609375 544.110546875 204.975 540.375 218.6369140625 532.0873046875 233.15 530.175 243.303515625 528.8537109375 265.9 530.65
M 264.5 582.45
Q 248.292578125 583.0982421875 245.4 583.925 240.966796875 585.1744140625 237.225 586.775 234.1841796875 588.0869140625 231.6 589.625 227.179296875 592.2646484375 224.125 595.575 221.303125 598.623828125 219.65 602.25 217.7509765625 606.444140625 217.4 611.4"/>
</g>

<g>
<path stroke="#525252" stroke-width="3" stroke-linejoin="round" stroke-linecap="round" fill="none" d="
M 204.975 540.375
Q 233.0953125 548.247265625 237.225 586.775
M 178.35 565.1
Q 216.2474609375 554.910546875 231.6 589.625
M 245.4 583.925
Q 249.5 549.1486328125 233.15 530.175
M 165.225 597.75
Q 193.4 590.7615234375 219.65 602.25
M 168.8 583.2
Q 199.976171875 574.1619140625 224.125 595.575"/>
</g>

<g>
<path stroke="#6C6F69" stroke-width="3" stroke-linejoin="round" stroke-linecap="round" fill="none" d="
M 265.9 530.65
L 264.5 582.45"/>
</g>

<g>
<path stroke="#6C6F69" stroke-width="2" stroke-linejoin="round" stroke-linecap="round" fill="none" d="
M 204.35 700.75
L 201.85 661.6 181.25 661.3 181.25 687.7 176.45 700.75
M 142.8 642.2
Q 142.9349609375 641.442578125 143.05 640.8 146.4390625 622.4845703125 164.7 612.9
M 142.8 642.2
Q 142.37578125 647.1884765625 145.2 661.475 148.4966796875 678.165625 181.25 687.7
M 181.25 661.3
L 181.25 646.5 208.85 646.5 210.85 685.7
M 201.85 661.6
L 208.85 646.5"/>
</g>

<g>
<path stroke="#333334" stroke-width="2" stroke-linejoin="round" stroke-linecap="round" fill="none" d="
M 217.4 611.4
Q 249.3470703125 624.732421875 244.5 651.55
L 240.15 677.85
Q 237.0458984375 684.7564453125 232.1 688.9 219.1951171875 700.1162109375 204.35 700.75
M 244.5 651.55
Q 237.48984375 676.6552734375 210.85 685.7
L 204.35 700.75"/>
</g>
</g>

<g>
<g>
<path stroke="#6C6F69" stroke-width="3" stroke-linejoin="round" stroke-linecap="round" fill="none" d="
M 164.7 612.9
Q 191.7416015625 600.9685546875 217.4 611.4"/>
</g>
</g>
</g>

<g class="body" id="body">
<g>
<g>
<g>
<path fill="#333334" stroke="none" d="
M 521.55 812.65
L 520.5 796
Q 491.15 787.2345703125 461.8 794.6
L 462.8 812.65
Q 492.175 802.68828125 521.55 812.65
M 519.45 779.35
Q 492.784765625 774.334375 460.35 781
L 461.8 794.6
Q 491.15 787.2345703125 520.5 796
L 519.45 779.35
M 456.05 740.35
L 457.6 754.9
Q 489.545703125 744.5900390625 517.5 748.25
L 516.5 732.2
Q 487.2185546875 731.6189453125 456.05 740.35
M 458.9 767.45
L 460.35 781
Q 492.784765625 774.334375 519.45 779.35
L 518.4 762.95
Q 488.675 759.36484375 458.9 767.45
M 457.6 754.9
L 458.9 767.45
Q 488.675 759.36484375 518.4 762.95
L 517.5 748.25
Q 489.545703125 744.5900390625 457.6 754.9
M 454.8 728.2
L 456.05 740.35
Q 487.2185546875 731.6189453125 516.5 732.2
L 515.55 716.9 454.8 728.2
M 342.2 789.05
Q 313.003125 782.0787109375 281.85 788.8
L 281.85 806.15 342.2 806.15 342.2 789.05
M 281.85 741.4
L 281.85 756.45
Q 313.0138671875 748.789453125 342.2 756.95
L 342.2 743.4
Q 312.025 733.6501953125 281.85 741.4
M 281.85 771.5
L 281.85 788.8
Q 313.003125 782.0787109375 342.2 789.05
L 342.2 772
Q 312.025 766.776953125 281.85 771.5
M 281.85 756.45
L 281.85 771.5
Q 312.025 766.776953125 342.2 772
L 342.2 756.95
Q 313.0138671875 748.789453125 281.85 756.45
M 281.85 726.3
L 281.85 741.4
Q 312.025 733.6501953125 342.2 743.4
L 342.2 730.9 281.85 726.3 Z"/>
</g>
</g>

<g>
<path stroke="#333334" stroke-width="3" stroke-linejoin="round" stroke-linecap="round" fill="none" d="
M 281.85 726.3
L 281.85 741.4
M 342.2 743.4
L 342.2 730.9
M 281.85 756.45
L 281.85 771.5
M 342.2 772
L 342.2 756.95
M 281.85 741.4
L 281.85 756.45
M 281.85 771.5
L 281.85 788.8
M 342.2 789.05
L 342.2 772
M 342.2 756.95
L 342.2 743.4
M 454.8 728.2
L 456.075 740.35
M 515.55 716.9
L 516.5 732.2
M 457.6 754.9
L 458.925 767.45
M 517.5 748.25
L 518.425 762.95
M 456.075 740.35
L 457.6 754.9
M 458.925 767.45
L 460.375 781
M 518.425 762.95
L 519.45 779.35
M 516.5 732.2
L 517.5 748.25
M 519.45 779.35
L 520.5 796 521.55 812.65
M 462.8 812.65
L 461.8 794.6 460.375 781
M 342.2 806.15
L 342.2 789.05
M 281.85 788.8
L 281.85 806.15"/>
</g>

<g>
<path stroke="#525252" stroke-width="3" stroke-linejoin="round" stroke-linecap="round" fill="none" d="
M 281.85 741.4
Q 312.025 733.6501953125 342.2 743.4
M 281.85 726.3
L 342.2 730.9
M 281.85 771.5
Q 312.025 766.776953125 342.2 772
M 281.85 756.45
Q 313.0138671875 748.789453125 342.2 756.95
M 281.85 788.8
Q 313.003125 782.0787109375 342.2 789.05
M 456.075 740.35
Q 487.2185546875 731.6189453125 516.5 732.2
M 454.8 728.2
L 515.55 716.9
M 458.925 767.45
Q 488.675 759.36484375 518.425 762.95
M 457.6 754.9
Q 489.545703125 744.5900390625 517.5 748.25
M 460.375 781
Q 492.784765625 774.334375 519.45 779.35
M 521.55 812.65
Q 492.175 802.68828125 462.8 812.65
M 281.85 806.15
L 342.2 806.15
M 461.8 794.6
Q 491.15 787.2345703125 520.5 796"/>
</g>
</g>

<g>
<g>
<g>
<path fill="url(#Gradient_4)" stroke="none" d="
M 282.85 706.75
Q 288.2091796875 709.315625 296.2 709.75 338.846484375 712.4107421875 380.55 712 403.2654296875 711.78046875 425.7 710.65 473.511328125 708.2423828125 520.05 701.7 521.446484375 691.652734375 522.5 681.65 531.441015625 598.2310546875 514.65 497 469.3580078125 479.8998046875 376.5 495 320.5244140625 500.8849609375 275.2 490.75 262.480859375 595.396484375 272.2 691.7 273.6611328125 702.3544921875 282.85 706.75
M 316.3 667.6
L 315.3 558.15 478.9 558.15 478.9 667.6 316.3 667.6 Z"/>

<path fill="url(#Gradient_5)" stroke="none" d="
M 315.3 558.15
L 316.3 667.6 478.9 667.6 478.9 558.15 315.3 558.15
M 329.35 575.25
L 461.85 573.25 461.85 610.35 461.85 652.55 329.35 652.55 329.35 613.9 329.35 575.25 Z"/>

<path fill="#6600FF" stroke="none" d="
M 415.1 623.4
L 407.6 596.8 398.55 634.45 393.55 588.75 384 619.9 377.95 601.3 368.95 625.9 360.4 592.8 352.4 613.9 329.35 613.9 329.35 652.55 461.85 652.55 461.85 610.35 437.2 610.35 430.65 623.9 425.65 599.3 415.1 623.4
M 461.85 573.25
L 329.35 575.25 329.35 613.9 352.4 613.9 360.4 592.8 368.95 625.9 377.95 601.3 384 619.9 393.55 588.75 398.55 634.45 407.6 596.8 415.1 623.4 425.65 599.3 430.65 623.9 437.2 610.35 461.85 610.35 461.85 573.25 Z"/>

<path fill="#6C6F69" stroke="none" d="
M 275.2 490.75
L 259.05 485.9
Q 254.4078125 523.2361328125 253.85 530.65 252.0322265625 556.214453125 251.45 582.4 250.230078125 639.51640625 255.05 699.7 256.61484375 708.95234375 260.05 714.9 265.89375 725.1015625 277.15 725.8 332.9416015625 731.685546875 380.55 731.85 404.1291015625 731.9638671875 425.7 730.65 476.10625 727.5947265625 515.55 716.9 530.4908203125 712.853125 534.15 706.6 536.016796875 703.444921875 534.95 699.7
L 520.05 701.7
Q 473.511328125 708.2423828125 425.7 710.65 403.2654296875 711.78046875 380.55 712 338.846484375 712.4107421875 296.2 709.75 288.2091796875 709.315625 282.85 706.75 273.6611328125 702.3544921875 272.2 691.7 262.480859375 595.396484375 275.2 490.75 Z"/>

<path fill="#D0D4C7" stroke="none" d="
M 525.9 494.55
Q 523.3453125 517.2921875 514.65 497 531.441015625 598.2310546875 522.5 681.65 521.446484375 691.652734375 520.05 701.7
L 534.95 699.7
Q 548.5423828125 614.046484375 525.9 494.55 Z"/>
</g>
</g>

<g>
<path stroke="#9C9C9D" stroke-width="4" stroke-linejoin="round" stroke-linecap="round" fill="none" d="
M 478.9 667.6
L 316.3 667.6 315.3 558.15"/>
</g>

<g>
<path stroke="#3D464B" stroke-width="4" stroke-linejoin="round" stroke-linecap="round" fill="none" d="
M 461.85 573.25
L 329.35 575.25"/>
</g>

<g>
<path stroke="#66FFFF" stroke-width="3" stroke-linejoin="round" stroke-linecap="round" fill="none" d="
M 329.35 613.9
L 352.4 613.9 360.4 592.8 368.95 625.9 377.95 601.3 384 619.9 393.55 588.75 398.55 634.45 407.6 596.8 415.1 623.4 425.65 599.3 430.65 623.9 437.2 610.35 461.85 610.35"/>
</g>

<g>
<path stroke="#CCCCCC" stroke-width="4" stroke-linejoin="round" stroke-linecap="round" fill="none" d="
M 329.35 652.55
L 461.85 652.55"/>
</g>

<g>
<path stroke="#CECAC3" stroke-width="5" stroke-linejoin="round" stroke-linecap="round" fill="none" d="
M 315.3 558.15
L 478.9 558.15 478.9 667.6"/>
</g>
</g>

<g>
<g>
<path stroke="#CCCCCC" stroke-width="4" stroke-linejoin="round" stroke-linecap="round" fill="none" d="
M 329.35 575.25
L 329.35 652.55"/>
</g>

<g>
<path stroke="#3D464B" stroke-width="4" stroke-linejoin="round" stroke-linecap="round" fill="none" d="
M 461.85 652.55
L 461.85 573.25"/>
</g>
</g>
</g>


<g class="head" id="head">

<g class="l_antenna" id="l_antenna">
<g transform="matrix( 1, 0, 0, 1, -1,0) ">
<g>
<path stroke="#333334" stroke-width="7" stroke-linejoin="round" stroke-linecap="round" fill="none" d="
M 346.45 118.4
Q 343.5 128.65 346.05 132.75 348.35 136.4 358.5 139.5 369.6 142.9 370.4 144.5 371.65 146.95 360.5 152.55 352.85 156.25 349.9 157.8 345 160.35 343.3 162.1 339.35 166.3 349.45 171.65 361.05 177.8 364.85 182.9 368.9 188.25 364.5 192.7 357.25 200 356.15 201.9 352.95 207.25 357.5 211.8"/>
</g>
</g>

<g transform="matrix( 1.63641357421875, 0, 0, 1.63641357421875, -230.95,-74) ">
<g>
<g>
<path fill="url(#Gradient_6)" stroke="none" d="
M 344.7 87.3
Q 336.7 87.3 331 92.95 325.35 98.65 325.35 106.65 325.35 114.65 331 120.3 336.7 126 344.7 126 352.7 126 358.35 120.3 364.05 114.65 364.05 106.65 364.05 98.65 358.35 92.95 352.7 87.3 344.7 87.3 Z"/>
</g>
</g>

<g transform="matrix( 0.611083984375, 0, 0, 0.611083984375, 141.1,45.2) ">
<path stroke="#333334" stroke-width="3" stroke-linejoin="round" stroke-linecap="round" fill="none" d="
M 364.786361694336 100.52350769042971
Q 364.786361694336 113.61481628417971 355.45880432128916 122.86055297851561 346.2130676269531 132.1881103515625 333.1217590332031 132.1881103515625 320.0304504394531 132.1881103515625 310.70289306640626 122.86055297851561 301.4571563720704 113.61481628417971 301.4571563720704 100.52350769042971 301.4571563720704 87.43219909667971 310.70289306640626 78.10464172363282 320.0304504394531 68.85890502929686 333.1217590332031 68.85890502929686 346.2130676269531 68.85890502929686 355.45880432128916 78.10464172363282 364.786361694336 87.43219909667971 364.786361694336 100.52350769042971 Z"/>
</g>
</g>
</g>

<g class="r_antenna" id="r_antenna">
<g>
<g>
<path stroke="#333334" stroke-width="7" stroke-linejoin="round" stroke-linecap="round" fill="none" d="
M 431.75 237.35
Q 425.4 226.8 428.6 217 431.4 208.35 439.75 204.2 446.05 201.05 440.05 187.65 438.25 183.6 434.45 176.8 430.6 169.95 429.75 168.05 428.45 165.15 433.65 165.65 436.75 166 445.25 167.7 452.85 169 455.4 167.65 458.85 165.85 454.8 159.05 451.05 152.8 444.5 146.2 437.45 139.6 434.9 136.95 430.65 132.6 430.7 129.95 430.75 126.75 436.75 123.9 445.3 119.9 459.2 115.9"/>
</g>
</g>

<g transform="matrix( 1.63641357421875, 0, 0, 1.63641357421875, -287.95,-80) ">
<g>
<g>
<path fill="url(#Gradient_7)" stroke="none" d="
M 491.35 116.9
Q 492.75 109 488.15 102.4 483.55 95.85 475.7 94.4 467.8 93 461.2 97.5 454.65 102.1 453.25 110 451.8 117.85 456.35 124.45 460.95 131.1 468.85 132.5 476.7 133.95 483.3 129.35 489.9 124.75 491.35 116.9 Z"/>
</g>
</g>

<g transform="matrix( 0.611083984375, 0, 0, 0.611083984375, 175.95,48.85) ">
<path stroke="#333334" stroke-width="3" stroke-linejoin="round" stroke-linecap="round" fill="none" d="
M 516.1018096923829 111.2967468261719
Q 513.7290100097655 124.14259338378906 502.92868041992193 131.6700958251953 492.1283508300781 139.19759826660155 479.28250427246104 136.82479858398438 466.3548370361328 134.5338195800781 458.82733459472666 123.65166931152345 451.3816528320313 112.85133972167966 453.75445251464845 100.0054931640625 456.0454315185546 87.07782592773435 466.76394042968747 79.55032348632812 477.5642700195313 72.18646240234375 490.49193725585934 74.47744140625002 503.3377838134766 76.85024108886716 510.86528625488273 87.56875000000002 518.392788696289 98.36907958984375 516.1018096923829 111.2967468261719 Z"/>
</g>
</g>
</g>

	
<g>
<g>
<g>
<path fill="url(#Gradient_8)" stroke="none" d="
M 496.95 223.7
Q 378.827734375 223.9337890625 222.9 211.8 409.6625 234.3 496.95 223.7 Z"/>

<path fill="url(#Gradient_9)" stroke="none" d="
M 636.15 385.05
Q 636.34921875 423.2466796875 625.25 462.4 656.544140625 459.4796875 660.1 425.15 661.49609375 389.7357421875 636.15 385.05 Z"/>

<path fill="url(#Gradient_10)" stroke="none" d="
M 559.7 504.4
Q 575.2435546875 501.222265625 576.6 496.05
L 577.25 488.85 569.2 495.9 574.2 460.3
Q 569.308984375 479.118359375 563.25 496.9 519.637890625 504.4126953125 473.8 507.6 492.7400390625 511.375390625 559.7 504.4 Z"/>

<path fill="url(#Gradient_11)" stroke="none" d="
M 106.95 401.05
Q 107.6421875 441.1369140625 135.85 443.65 131.2404296875 406.5505859375 134.55 369.45 111.8859375 371.362890625 106.95 401.05 Z"/>

<path fill="url(#Gradient_12)" stroke="none" d="
M 142.3 349.1
Q 142.205078125 349.978125 142.1 350.85 134.2982421875 409.6302734375 142.6 469.85
L 170.35 470.5
Q 167.48671875 409.2431640625 171.85 343.9
L 143.1 343.85 142.3 349.1 Z"/>

<path fill="url(#Gradient_13)" stroke="none" d="
M 136.55 351.85
Q 135.3208984375 360.6513671875 134.55 369.45 131.2404296875 406.5505859375 135.85 443.65 136.19375 446.1986328125 136.55 448.75 138.7185546875 467.007421875 142.6 469.85 134.2982421875 409.6302734375 142.1 350.85 142.205078125 349.978125 142.3 349.1
L 143.1 343.85 136.55 351.85 Z"/>

<path fill="url(#Gradient_14)" stroke="none" d="
M 636.15 385.05
L 636.15 385.05
Q 636.1033203125 373.43125 635 361.9
L 628.45 356.3
Q 637.05546875 421.06796875 611.9 483.85
L 618.4 483.85
Q 622.2544921875 473.1013671875 625.25 462.4 636.34921875 423.2466796875 636.15 385.05 Z"/>

<path fill="url(#Gradient_15)" stroke="none" d="
M 628.45 356.3
L 607.5 356.3
Q 601.0705078125 419.9669921875 583.35 483.85
L 611.9 483.85
Q 637.05546875 421.06796875 628.45 356.3 Z"/>

<path fill="url(#Gradient_16)" stroke="none" d="
M 610.6 256.55
Q 609.6337890625 245.589453125 607.95 237.35 613.5435546875 368.3140625 577.25 488.85
L 576.6 496.05 576 503.25
Q 581.9578125 495.837890625 583.35 483.85 601.0705078125 419.9669921875 607.5 356.3 612.5216796875 306.3587890625 610.6 256.55 Z"/>

<path fill="url(#Gradient_17)" stroke="none" d="
M 592.75 229.35
Q 590.13046875 219.83125 583.8 214.3 601.3595703125 205.3599609375 607.95 237.35 609.6337890625 245.589453125 610.6 256.55 609.681640625 232.6453125 609.45 227.85 609.3771484375 210.9333984375 592.35 207.75 424.4619140625 225.86796875 201.8 202.75 192.362890625 205.4005859375 186.8 215.8 176.036328125 281.7015625 171.85 343.9 167.48671875 409.2431640625 170.35 470.5 170.5314453125 473.655859375 170.7 476.8 172.65390625 500.3390625 189.8 500.9 222.6607421875 510.048046875 255.05 515.85 263.643359375 517.418359375 272.2 518.7 323.9587890625 526.64296875 374.5 526 454.6716796875 525.7951171875 517.65 518 523.3453125 517.2921875 528.9 516.5 549.54609375 513.662890625 568.25 509.95 572.791015625 507.27109375 576 503.25
L 576.6 496.05
Q 575.2435546875 501.222265625 559.7 504.4 492.7400390625 511.375390625 473.8 507.6
L 460.6 508.25
Q 459.152734375 508.32578125 457.7 508.4 336.1162109375 514.3798828125 199.3 489.45 179.210546875 485.72265625 181.75 448.7 180.2490234375 341.413671875 197.8 237.9 199.575390625 212.3837890625 222.9 211.8 378.827734375 223.9337890625 496.95 223.7 502.77265625 223.003125 508.15 222.15 583.76953125 210.16015625 592.75 229.35 Z"/>

<path fill="url(#Gradient_18)" stroke="none" d="
M 592.75 229.35
Q 593.9830078125 231.9314453125 594 235.05 594.504296875 237.083203125 594.55 239.35 595.557421875 270.7296875 595.25 292.15 593.976953125 384.3236328125 574.35 459.75 574.29453125 460.0333984375 574.2 460.3
L 569.2 495.9 577.25 488.85
Q 613.5435546875 368.3140625 607.95 237.35 601.3595703125 205.3599609375 583.8 214.3 590.13046875 219.83125 592.75 229.35 Z"/>

<path fill="#B3B3B4" stroke="none" d="
M 593.95 234.85
Q 593.5013671875 231.9615234375 592.75 229.35 583.76953125 210.16015625 508.15 222.15 502.77265625 223.003125 496.95 223.7 409.6625 234.3 222.9 211.8 199.575390625 212.3837890625 197.8 237.9 180.2490234375 341.413671875 181.75 448.7 179.210546875 485.72265625 199.3 489.45 336.1162109375 514.3798828125 457.7 508.4 459.152734375 508.32578125 460.6 508.25
L 473.8 507.6
Q 519.637890625 504.4126953125 563.25 496.9 569.308984375 479.118359375 574.2 460.3 574.29453125 460.0333984375 574.35 459.75 593.976953125 384.3236328125 595.25 292.15 595.557421875 270.7296875 594.55 239.35 594.504296875 237.083203125 594 235.05 594.0005859375 235.148828125 594 235.25 592.6416015625 231.43828125 592.95 232.15 593.3126953125 232.9068359375 593.55 233.65 593.649609375 233.8912109375 593.7 234.1 593.8396484375 234.468359375 593.95 234.85 Z"/>
</g>
</g>
</g>

<g>
<g>
<g>
<path fill="#2E3131" stroke="none" d="
M 558.25 329.25
Q 553.623828125 262.8484375 530.9 259.95 405.325390625 243.501953125 282.95 252.95 258.643359375 253.135546875 251.95 267.95 221.3544921875 348.45 219.95 428.95 219.1791015625 452.163671875 233.95 455.95 371.5990234375 489.834375 527.9 467.95 548.2712890625 464.1345703125 555.6 429.9 562.93125 395.706640625 558.25 329.25 Z"/>
</g>
</g>
</g>
</g>
</svg>
