<svg width="512" height="512" viewBox="0 0 512 512" fill="none" xmlns="http://www.w3.org/2000/svg">
<rect width="512" height="512" rx="256" fill="black"/>
<rect x="303.36" y="335.36" width="28.16" height="110.08" transform="rotate(90 303.36 335.36)" fill="white"/>
<path fill-rule="evenodd" clip-rule="evenodd" d="M34.5601 156.16V335.36H97.2801C146.765 335.36 186.88 295.245 186.88 245.76C186.88 196.275 146.765 156.16 97.2801 156.16H34.5601ZM72.9601 194.56L72.9601 296.96H97.2801C125.557 296.96 148.48 274.037 148.48 245.76C148.48 217.483 125.557 194.56 97.2801 194.56H72.9601Z" fill="white"/>
<path fill-rule="evenodd" clip-rule="evenodd" d="M331.52 156.16V335.36H394.24C443.725 335.36 483.84 295.245 483.84 245.76C483.84 196.275 443.725 156.16 394.24 156.16H331.52ZM369.92 194.56L369.92 296.96H394.24C422.517 296.96 445.44 274.037 445.44 245.76C445.44 217.483 422.517 194.56 394.24 194.56H369.92Z" fill="white"/>
</svg>
